<svg width="58" height="48" fill="none" xmlns="http://www.w3.org/2000/svg"><path d="M4.57 44.18h18.35a5.6 5.6 0 005.07 3.17h1.16a5.6 5.6 0 005.07-3.17h18.35c1.9 0 3.43-1.54 3.43-3.43V7.89c0-1.89-1.54-3.43-3.43-3.43h-1.85V2.93A2.29 2.29 0 0048.43.65H8.7A2.29 2.29 0 006.4 2.93v1.53H4.57A3.43 3.43 0 001.14 7.9v32.86c0 1.9 1.54 3.43 3.43 3.43zm43.86-7.05H29.71V10.57a8.84 8.84 0 017.69 8.75v1.03l-.28-.06a1.14 1.14 0 00-1.36.87l-1.82 8.28c-.13.61.26 1.22.87 1.36l3.94.86a2.92 2.92 0 003.48-2.24l1.05-4.78a2.93 2.93 0 00-2.23-3.49l-1.37-.3v-1.53c0-5.75-4.38-10.48-9.97-11.06V2.93h18.72v34.2zM37.75 22.76l2.8.62c.36.08.57.41.5.77l-1.06 4.78a.68.68 0 01-.76.5l-2.81-.62 1.33-6.05zM8.7 2.93h18.73v5.33c-5.6.57-9.98 5.31-9.98 11.06v1.53l-1.37.3a2.9 2.9 0 00-2.22 3.49l1.05 4.78a2.94 2.94 0 003.49 2.24l3.91-.86c.62-.14 1-.75.87-1.36l-1.82-8.28a1.14 1.14 0 00-1.36-.87l-.26.05v-1.02a8.84 8.84 0 017.69-8.75v26.56H8.7V2.93zm10.67 19.84l1.33 6.04-2.79.62a.65.65 0 01-.77-.5l-1.05-4.79a.63.63 0 01.08-.48c.1-.14.24-.24.4-.28l2.8-.61zM3.43 7.89c0-.63.51-1.14 1.14-1.14h1.84v30.38A2.29 2.29 0 008.7 39.4h39.73a2.29 2.29 0 002.29-2.28V6.75h1.85c.63 0 1.14.51 1.14 1.14v32.86c0 .63-.5 1.14-1.14 1.14H33.44c-.5 0-.95.33-1.1.81a3.33 3.33 0 01-3.2 2.37H28a3.34 3.34 0 01-3.21-2.38c-.15-.48-.6-.8-1.09-.8H4.57c-.63 0-1.14-.51-1.14-1.14V7.89z" fill="#FF6B09"/></svg>