<svg width="30" height="29" fill="none" xmlns="http://www.w3.org/2000/svg"><path d="M4.37 0c-.49.03-.96.23-1.3.61L.62 3.3c0-.01-.01-.01-.08.09a.6.6 0 00-.08.16c-1 3.16-.33 6.63 1.29 9.93 1.61 3.3 4.2 6.45 7.15 9.04 2.96 2.6 6.3 4.62 9.49 5.63 3.18 1 6.27.99 8.56-.67a.6.6 0 00.07-.06l.05-.06.01-.01 2.42-2.66A1.9 1.9 0 0029.4 22l-5.75-5.22a1.9 1.9 0 00-2.66.12l-2.6 2.86a13.93 13.93 0 01-5.64-3.22 13.93 13.93 0 01-3.75-5.32l2.6-2.86a1.9 1.9 0 00-.12-2.66L5.72.49C5.34.14 4.85-.02 4.37 0zm.05 1.17a.7.7 0 01.5.2l5.75 5.22c.3.26.32.7.05.99l-2.87 3.16a.59.59 0 00-.12.6 15.13 15.13 0 004.21 6.08c1.93 1.76 4 2.98 6.46 3.62a.59.59 0 00.59-.17l2.87-3.16c.27-.3.7-.31 1-.04l5.73 5.22c.3.27.32.7.05 1l-2.4 2.63c-1.88 1.35-4.52 1.42-7.49.49-2.97-.94-6.2-2.88-9.06-5.39a28.9 28.9 0 01-6.87-8.67C1.3 9.86.75 6.74 1.59 3.99L3.93 1.4a.7.7 0 01.49-.24z" fill="#FF6B09"/></svg>