<svg width="40" height="47" fill="none" xmlns="http://www.w3.org/2000/svg"><path d="M-.15 46.64h40.17c.2-4.58-.13-12.19-2.94-15.8l-.1-.13-6.16-3.1c.13-.45.2-.86.23-1.16.03-.37-.02-.7-.15-1.02a8.53 8.53 0 00-4.35-4.25c.36-.73.6-1.5.7-2.3.67-.2 1.21-.72 1.39-1.43l.72-2.92a1.98 1.98 0 00-.67-2c2.02-4.6-1.37-8.94-1.55-9.17A9.9 9.9 0 0018.57.17c-6.7 1.4-9.28 6.54-7.82 12.56a1.98 1.98 0 00-.45 1.8l.72 2.92c.17.7.7 1.23 1.37 1.42.2 1.46.82 2.78 1.73 3.84v2.32C4.51 29.95 10.6 26.8 2.89 30.7c-.01.07-3.61 3.9-3.08 15.24l.04.69zm38.78-1.46H32v-2.77l4.38-10.02c2.19 3.64 2.27 10.58 2.24 12.8zM29.6 26.32c-.25 2.94-1.86 2.05-2.85 4.3a3.32 3.32 0 01-.8-2.98c.37-2.02-.86-2.62-.56-4.75l.05-.05.34-.42c2.61 1.14 3.87 3.27 3.82 3.9zm-14.03-2.3a7.45 7.45 0 008.36.11c.17 1.67.82 2 .59 3.24a5.4 5.4 0 00-.08.67l-4.5 5.08-5.76-6.5 1.39-.72v-1.88zm-1.81-6.21V15v-4.95a6.3 6.3 0 012.84-2.8 39.95 39.95 0 019.3 7.19c0 3.44 0 3.45-.02 3.73v.02a6.08 6.08 0 01-12.12-.38zm-.9 9.52l7.07 7.97 4.75-5.35c.11.31.27.6.44.9l-5.19 6.48-7.73-9.67.66-.33zm14.49-10.7V14.4l.54-.62c.02 1.14.15-.2-.54 2.87zM18.85 1.6c.28.02 4.14-.59 7.2 2.7.11.16 2.6 3.36 1.6 6.86-.34-1.56-.94-3.55-1.88-4.5l-1.03 1.02c.93.94 1.54 3.8 1.77 5.29-4.26-4.46-9.75-7.28-9.83-7.33-.28.17-2.6.61-4.29 3.9l-.08.15v2.41h-.21c-1.08-5.17.98-9.3 6.74-10.5zm-6.9 12l.36 1.48v1.56l-.6-2.46c-.1-.36.17-.5.23-.58zm-1.07 14.72l9.05 11.33L26.06 32c.67.6.99.68 2.4 1.4L28 31.79c-.13-.41.35-1.07.64-1.37a4.38 4.38 0 001.59-1.47l5 2.51-4.65 10.65v3.08H9.3V42.1L4.65 31.45l6.23-3.13zm-7.4 4.08l4.37 10v2.78h-6.6c-.04-2.2.04-9.15 2.23-12.78z" fill="#FF6B09"/></svg>