<svg width="22" height="30" fill="none" xmlns="http://www.w3.org/2000/svg"><path d="M20.54 15.56a8.66 8.66 0 00-1.17-1.86c-1.35-1.7-1.76-5.5-1.77-5.53a.46.46 0 00-.31-.39.46.46 0 00-.5.13c-1.6 1.8-.93 4.6-.56 5.7.1.31.21.67.29 1.04.6 2.94-.55 4.27-.83 4.54-.26.07-.44.03-.6-.14-.57-.63-.76-2.67-.5-5.33.06-.54.05-1.02-.03-1.48-.56-3.27-2.61-5.36-3.14-6.1C9.98 4.01 9.84.47 9.83.44c0-.17-.1-.32-.25-.39a.46.46 0 00-.46.03c-2.4 1.63-2.2 5.57-1.86 7.76.07.51.23 1.03.49 1.68.93 2.34-.19 5.37-.2 5.4l-.02.07c-.14.75-.38 1.2-.64 1.2l-.1-.02c-.32-.07-.49-.41-.5-.71-.01-3.88-3.9-5.19-3.94-5.2a.46.46 0 00-.49.14.45.45 0 00-.06.5c.04.1.19.51.09 1.99a16.98 16.98 0 01-.72 3.9A19 19 0 00.4 22.8c.71 7.74 11.85 9.1 18.45 4.74a6.68 6.68 0 001.75-1.63c2.44-3.36 1-7.93-.06-10.35zM3.6 22.96a.45.45 0 01-.43.47h-.02a.46.46 0 01-.46-.43c-.04-.66-.03-1.36.02-2.11a.46.46 0 01.49-.43c.25.02.44.24.42.5-.05.7-.06 1.36-.02 2zm.23-4.04a.45.45 0 01-.46.4h-.05a.46.46 0 01-.4-.5l.22-1.76a.46.46 0 01.51-.4c.25.04.43.26.4.51l-.22 1.75zM17.44 6.22a.45.45 0 01-.38-.52c.02-.18.19-1.13.64-1.6.17-.19.46-.2.65-.03.18.18.2.46.02.65-.2.2-.35.77-.4 1.12a.46.46 0 01-.53.38zM.73 8.48c-.09-.34-.3-.9-.52-1.07a.45.45 0 01-.04-.65c.17-.19.46-.2.65-.04.5.43.75 1.36.8 1.54a.45.45 0 01-.33.55.46.46 0 01-.56-.33z" fill="#FF6B09"/></svg>