<svg width="49" height="48" fill="none" xmlns="http://www.w3.org/2000/svg"><path d="M2.99 18.84v4.24c0 .23.1.45.28.59a16.65 16.65 0 0013.57 3.2 18.03 18.03 0 0014.67 0 16.5 16.5 0 0013.56-3.2.74.74 0 00.29-.59v-4.24c0-.63-.31-1.2-.87-1.54l-5.8-3.27a11.77 11.77 0 002.38-5.87A6.28 6.28 0 0030.4 3.03l-.12.12-.1.12-.07.08A6.56 6.56 0 0023.5.05l-.05-.02c-.13 0-.43.04-.58.08l-.06.04a6.72 6.72 0 00-4.52 3.23 6.26 6.26 0 00-4.77-2.19c-5.86 0-8.46 6.92-3.84 12.88l-5.85 3.25c-.52.32-.83.9-.83 1.52zm28.5 6.4l-.37.19a16.5 16.5 0 01-6.95 1.5 16.56 16.56 0 01-10-3.33v-4.31c0-.15.06-.28.15-.33l6.8-3.79a4.85 4.85 0 003.06 1.25c1.08 0 2.25-.54 3.08-1.27l6.73 3.78c.12.08.2.21.2.36v4.3c-.86.65-1.76 1.2-2.7 1.65zm12.24-6.67a.3.3 0 01.14.27v3.88a14.98 14.98 0 01-10.1 2.97 19.8 19.8 0 001.62-1.14.74.74 0 00.28-.59V19.3c0-.65-.32-1.25-.91-1.63l-3.58-2 .87-.5a4.27 4.27 0 002.77 1.13c1 0 2.04-.5 2.82-1.14l6.1 3.42zm-8.9-15.89a4.83 4.83 0 014.53 3.22A5.55 5.55 0 0136 4.18a.74.74 0 00-1.18.13A5.52 5.52 0 0131 6.95c0-.33-.01-.66-.05-.99l-.01-.1a8.25 8.25 0 00-.19-.9 4.88 4.88 0 014.07-2.28zm-4 5.79a6.97 6.97 0 004.75-2.65 7.03 7.03 0 004.05 1.59c0 2.69-2.2 7.39-4.8 7.39-2.01 0-3.72-2.87-4.36-4.86.16-.51.28-1 .36-1.47zm.16 5.59l-1.33.74-1.35-.76c.5-.62.96-1.34 1.35-2.12.37.8.82 1.52 1.33 2.14zM28.98 9.7c-.72 2.14-2.56 5.23-4.8 5.23-2.61 0-4.84-4.3-5.26-7.04.11-.03 3.64.19 6.07-3a7.76 7.76 0 004.52 1.78c.02.97-.22 2.1-.53 3.03zm-4.76-8.21c4.17 0 4.97 3.59 5.03 3.66a6.2 6.2 0 01-3.84-1.91.74.74 0 00-1.19.13 6.11 6.11 0 01-5.37 3.03 5.27 5.27 0 015.37-4.91zM18.7 11.9c.39.77.85 1.5 1.37 2.15l-1.31.73-1.36-.76c.51-.66.95-1.4 1.3-2.12zm-5.18-9.23c1.69 0 3.23.86 4.1 2.27-.05.15-.17.75-.18.82a5.5 5.5 0 01-2.73-1.59.74.74 0 00-1.19.13 5.57 5.57 0 01-4.76 2.72 4.8 4.8 0 014.76-4.35zM8.8 8.52a7.06 7.06 0 005.47-2.7c.9.74 1.95 1.22 3.08 1.44.04.87.27 1.91.53 2.69a10.23 10.23 0 01-2.18 3.76l-.02.01a3.3 3.3 0 01-2.17 1.08c-2.39 0-4.26-3.76-4.7-6.28zM4.48 18.84c0-.12.05-.21.1-.25l6.17-3.42c.37.3.46.34.53.4.73.48 1.4.72 2.3.72.97 0 1.85-.41 2.63-1.04l.13-.1.88.5-3.67 2.03a1.9 1.9 0 00-.88 1.61v4.67c0 .23.1.45.29.59.47.37 1.09.8 1.62 1.14-3.65.25-7.2-.8-10.1-2.97v-3.88z" fill="#FF6B09"/><path d="M46.89 31.17a3.1 3.1 0 00-3.01-.16l-9.18 4.43a3.17 3.17 0 00-3.16-3.1h-5.27c-2.6-2.26-5.9-3.64-8.92-3.72a373.8 373.8 0 00-6.9-.1v-1.5H0V44.3h10.46v-2.07C13.33 43.88 20.86 48 24.44 48h.24c6.3-.36 21.14-10.8 22.12-11.5a3.12 3.12 0 00.09-5.33zM8.97 42.81H1.49v-14.3h7.48v14.3zm37.06-7.58a.64.64 0 00-.07.04c-.15.1-15.42 10.9-21.36 11.24h-.18c-3.14 0-10.8-4.13-13.96-6v-10.5c1.24.01 3.9.03 6.85.1 2.76.07 5.81 1.38 8.18 3.52l.22.2h5.83a1.68 1.68 0 010 3.35H20.83v1.49h10.7c1.03 0 1.94-.5 2.52-1.26l10.47-5.06a1.6 1.6 0 011.58.08 1.63 1.63 0 01-.07 2.8zM24.92 18.24h-1.49v1.38h1.49v-1.38zM24.92 20.99h-1.49v1.38h1.49v-1.38zM24.92 23.74h-1.49v1.38h1.49v-1.38z" fill="#FF6B09"/></svg>