<svg width="40" height="40" fill="none" xmlns="http://www.w3.org/2000/svg"><g clip-path="url(#clip0)"><path d="M39.32 7.15A7.28 7.28 0 0032.85.68c-8.56-.9-17.14-.9-25.7 0A7.28 7.28 0 00.68 7.15c-.9 8.56-.9 17.14 0 25.7a7.28 7.28 0 006.47 6.47c8.56.9 17.14.9 25.7 0a7.28 7.28 0 006.47-6.47c.9-8.56.9-17.14 0-25.7z" fill="url(#paint0_radial)"/><path d="M37.14 8.6a6.46 6.46 0 00-5.74-5.74c-7.6-.81-15.2-.81-22.8 0A6.46 6.46 0 002.86 8.6c-.81 7.6-.81 15.2 0 22.8a6.46 6.46 0 005.74 5.74c7.6.81 15.2.81 22.8 0a6.46 6.46 0 005.74-5.74c.81-7.6.81-15.2 0-22.8z" fill="url(#paint1_linear)"/><path d="M.6 32.02l.08.83a7.28 7.28 0 006.47 6.47c8.56.9 17.14.9 25.7 0a7.28 7.28 0 006.47-6.47l.08-.83H.6z" fill="url(#paint2_linear)"/><path d="M39.32 32.85c.49-4.6.71-9.2.68-13.8L30.85 9.9a6.55 6.55 0 00-4.77-2.2c-4.03-.14-8.07-.13-12.1.01-3.36.12-5.7 2.37-6.3 5.67-.1.59-.17 1.18-.25 1.77v9.7c.04.31.11.63.13.94a7.05 7.05 0 002.29 4.9l9.3 9.3c4.57.04 9.14-.19 13.7-.67a7.28 7.28 0 006.47-6.47z" fill="url(#paint3_linear)"/><path d="M39.32 32.85a7.28 7.28 0 01-6.47 6.47c-4.56.48-9.13.7-13.7.68l-9.29-9.3a6.51 6.51 0 004.11 1.59c4.03.15 8.08.14 12.11 0a6.48 6.48 0 006.4-6.48c.12-3.87.12-7.75 0-11.62a6.75 6.75 0 00-1.62-4.29L40 19.04c.03 4.6-.2 9.2-.68 13.8z" fill="url(#paint4_linear)"/><path d="M24.72 15.67A6.39 6.39 0 0013.59 20c0 1.87.8 3.55 2.08 4.72l14.82 14.82 2.36-.22a7.28 7.28 0 006.47-6.47l.22-2.36-14.82-14.82z" fill="url(#paint5_linear)"/><path d="M39.92 24.3L28 12.39a1.52 1.52 0 10-2.13 2.13L39.7 28.36c.1-1.35.16-2.7.21-4.05z" fill="url(#paint6_linear)"/><path d="M7.43 15.15c.08-.59.15-1.18.25-1.77.6-3.3 2.94-5.55 6.3-5.67 4.03-.14 8.07-.15 12.1 0a6.48 6.48 0 016.4 6.48c.12 3.87.12 7.75 0 11.62a6.48 6.48 0 01-6.4 6.48c-4.03.14-8.08.15-12.1 0-3.65-.14-6.17-2.85-6.42-6.5-.02-.31-.09-.63-.13-.94v-9.7zM20 30.13c1.85 0 3.7.05 5.54-.02 2.89-.1 4.66-1.83 4.73-4.71.09-3.6.09-7.2 0-10.8-.07-2.89-1.84-4.65-4.73-4.71-3.67-.08-7.34-.08-11 0-2.87.06-4.65 1.79-4.73 4.64-.1 3.64-.1 7.3 0 10.93.08 2.86 1.86 4.55 4.73 4.65 1.82.07 3.64.02 5.46.02z" fill="url(#paint7_linear)"/><path d="M7.43 15.15c.08-.59.15-1.18.25-1.77.6-3.3 2.94-5.55 6.3-5.67 4.03-.14 8.07-.15 12.1 0a6.48 6.48 0 016.4 6.48c.12 3.87.12 7.75 0 11.62a6.48 6.48 0 01-6.4 6.48c-4.03.14-8.08.15-12.1 0-3.65-.14-6.17-2.85-6.42-6.5-.02-.31-.09-.63-.13-.94v-9.7zM20 30.13c1.85 0 3.7.05 5.54-.02 2.89-.1 4.66-1.83 4.73-4.71.09-3.6.09-7.2 0-10.8-.07-2.89-1.84-4.65-4.73-4.71-3.67-.08-7.34-.08-11 0-2.87.06-4.65 1.79-4.73 4.64-.1 3.64-.1 7.3 0 10.93.08 2.86 1.86 4.55 4.73 4.65 1.82.07 3.64.02 5.46.02z" fill="#fff"/><path d="M20 13.6a6.4 6.4 0 100 12.8 6.4 6.4 0 000-12.8zm0 10.6a4.2 4.2 0 110-8.4 4.2 4.2 0 010 8.4zM28.3 13.3a1.52 1.52 0 11-3.04 0 1.52 1.52 0 013.05 0z" fill="#fff"/></g><defs><linearGradient id="paint1_linear" x1="15.34" y1="17.38" x2="-52.42" y2="-20.74" gradientUnits="userSpaceOnUse"><stop stop-color="#A1B5D8" stop-opacity="0"/><stop offset=".31" stop-color="#90A2BD" stop-opacity=".31"/><stop offset=".76" stop-color="#7C8B9C" stop-opacity=".76"/><stop offset="1" stop-color="#748290"/></linearGradient><linearGradient id="paint2_linear" x1="20" y1="35.31" x2="20" y2="41.55" gradientUnits="userSpaceOnUse"><stop stop-color="#FAE100" stop-opacity="0"/><stop offset=".31" stop-color="#FCA800" stop-opacity=".31"/><stop offset=".63" stop-color="#FE7300" stop-opacity=".63"/><stop offset=".87" stop-color="#FF5200" stop-opacity=".87"/><stop offset="1" stop-color="#FF4500"/></linearGradient><linearGradient id="paint3_linear" x1="17.72" y1="17.67" x2="7.83" y2="7.77" gradientUnits="userSpaceOnUse"><stop stop-color="#833AB4" stop-opacity="0"/><stop offset="1" stop-color="#833AB4"/></linearGradient><linearGradient id="paint4_linear" x1="27.41" y1="36.59" x2="22.47" y2="13.29" gradientUnits="userSpaceOnUse"><stop stop-color="#833AB4" stop-opacity="0"/><stop offset="1" stop-color="#833AB4"/></linearGradient><linearGradient id="paint5_linear" x1="29.29" y1="29.29" x2="9.45" y2="9.45" gradientUnits="userSpaceOnUse"><stop stop-color="#833AB4" stop-opacity="0"/><stop offset="1" stop-color="#833AB4"/></linearGradient><linearGradient id="paint6_linear" x1="30.77" y1="17.29" x2="24.2" y2="10.72" gradientUnits="userSpaceOnUse"><stop stop-color="#833AB4" stop-opacity="0"/><stop offset="1" stop-color="#833AB4"/></linearGradient><linearGradient id="paint7_linear" x1="27.94" y1="12.11" x2="11.76" y2="28.29" gradientUnits="userSpaceOnUse"><stop stop-color="#833AB4"/><stop offset=".09" stop-color="#9C3495"/><stop offset=".29" stop-color="#DC2546"/><stop offset=".39" stop-color="#FD1D1D"/><stop offset=".56" stop-color="#FC6831"/><stop offset=".69" stop-color="#FC9B40"/><stop offset=".75" stop-color="#FCAF45"/><stop offset=".78" stop-color="#FDB750"/><stop offset=".87" stop-color="#FECB6A"/><stop offset=".94" stop-color="#FFD87A"/><stop offset="1" stop-color="#FFDC80"/></linearGradient><radialGradient id="paint0_radial" cx="0" cy="0" r="1" gradientUnits="userSpaceOnUse" gradientTransform="translate(8.2 34.96) scale(44.113)"><stop stop-color="#FAE100"/><stop offset=".05" stop-color="#FADC04"/><stop offset=".12" stop-color="#FBCE0E"/><stop offset=".18" stop-color="#FCB720"/><stop offset=".25" stop-color="#FE9838"/><stop offset=".31" stop-color="#FF7950"/><stop offset=".49" stop-color="#FF1C74"/><stop offset="1" stop-color="#6C1CD1"/></radialGradient><clipPath id="clip0"><path fill="#fff" d="M0 0h40v40H0z"/></clipPath></defs></svg>