<svg width="42" height="48" fill="none" xmlns="http://www.w3.org/2000/svg"><path d="M.81 20.61c0 .54-.81.54-.81 0a20.62 20.62 0 0141.23 0c0 .54-.81.54-.81 0 0-7.69-12.64-7.7-12.64 0 0 .54-.84.54-.84 0 0-7.67-12.66-7.67-12.66 0 0 .54-.83.54-.83 0 0-7.66-12.64-7.71-12.64 0zm12.71-2.98c.22-4.43.92-8.4 1.93-11.44.8-2.4 1.83-4.23 2.99-5.26A19.82 19.82 0 001.14 17c3-4.31 9.9-3.97 12.38.62zm13.36-.2c-.22-4.26-.9-8.07-1.87-10.98-2.51-7.52-6.28-7.52-8.8 0a42.85 42.85 0 00-1.86 10.98c2.7-4.6 9.83-4.6 12.53 0zm13.2-.42A19.8 19.8 0 0022.79.93c1.17 1.03 2.19 2.86 3 5.26 1 3.04 1.7 7 1.92 11.44 2.5-4.61 9.43-4.89 12.39-.62zM17.9 30.05v-4.2c-.75.51-1.34 1.28-1.34 2.23 0 .92.6 1.53 1.35 1.97zm.82 1.3c-1.45-.67-2.97-1.44-2.97-3.27 0-1.89 1.44-2.83 2.97-3.54v6.8zM23.32 36.36v4.23c.76-.5 1.36-1.28 1.36-2.23 0-.92-.61-1.55-1.36-2zm-.8-1.3c1.44.67 2.97 1.47 2.97 3.3 0 1.9-1.44 2.84-2.98 3.54v-6.84z" fill="#FF6B09"/><path d="M23.32 21.1c3.33.76 6.75 3.26 6.75 6.98 0 3.19-5.39 3.07-5.39 0 0-.95-.6-1.73-1.36-2.23v5.96c3.08 1 6.76 2.8 6.76 6.56 0 3.72-3.42 6.21-6.76 6.97-.02 3.55-5.4 3.55-5.41 0a9.94 9.94 0 01-4.74-2.5 6.28 6.28 0 01-2-4.47c0-3.14 5.39-3.14 5.39 0 0 .93.6 1.7 1.35 2.21v-5.95c-3.06-.99-6.76-2.85-6.76-6.56 0-3.73 3.42-6.22 6.76-6.98.01-3.55 5.4-3.54 5.4 0zm-4.6 0v.65c-3.17.63-6.76 2.66-6.76 6.32 0 3.52 3.94 5.1 6.76 5.96v7.87c-1.52-.7-2.97-1.64-2.97-3.53 0-2.08-3.76-2.08-3.76 0 0 1.46.65 2.81 1.75 3.9a9.31 9.31 0 004.98 2.4v.66c0 2.5 3.8 2.5 3.8 0v-.65c3.17-.63 6.75-2.66 6.75-6.31 0-3.56-3.94-5.09-6.76-5.98V24.54c1.53.7 2.98 1.63 2.98 3.54 0 2.02 3.77 2.1 3.77 0 0-3.66-3.58-5.7-6.75-6.32v-.66c0-2.5-3.79-2.5-3.79 0z" fill="#FF6B09"/></svg>