<svg width="48" height="47" fill="none" xmlns="http://www.w3.org/2000/svg"><path d="M44.32-.19H21.19a2.73 2.73 0 00-2.73 2.73v9.58l-17.18 7.2a.56.56 0 00-.07 1l2.2 1.31v13.98a2.52 2.52 0 00-1.97 2.46v1.34c0 .31.25.56.56.56h3.92c.31 0 .56-.25.56-.56v-1.34c0-1.2-.84-2.2-1.96-2.46v-13.3l1.73 1.03c-.05.4 0-.7-.02 6.5 0 2.37 6.06 3.64 12.23 3.72v10.9a2.73 2.73 0 002.73 2.73h23.13c1.5 0 2.73-1.23 2.73-2.73V2.54a2.75 2.75 0 00-2.73-2.73zM5.36 38.07v.78h-2.8v-.78a1.4 1.4 0 112.8 0zm38.96 8H21.19a1.61 1.61 0 01-1.6-1.61v-3.78h26.33v3.78c0 .88-.73 1.6-1.6 1.6zm1.6-6.5H19.58v-6.01c3.01-.04 12.24-.7 12.24-3.71 0-4.53.01-6.36-.01-6.52l5.02-3a.56.56 0 00-.07-1l-17.18-7.21V7.44h26.34v32.12zm-26.9-13.44c-3.1 0-9.08.4-11.67 2.1.01-5.19-.18-4.85.46-5.29 1.6-1.19 6.22-2.02 11.21-2.02 2.18 0 11.68.6 11.68 2.62v4.69c-2.62-1.71-8.56-2.1-11.68-2.1zm.56-23.59c0-.88.72-1.6 1.61-1.6h23.13c.89 0 1.6.73 1.6 1.6v3.78H19.58V2.54zm-.56 10.55l16.3 6.84-4.05 2.42c-2.14-2.13-9.24-2.54-12.25-2.54s-10.1.4-12.25 2.54l-4.04-2.42 16.3-6.84zM7.35 29.85c0-.9 4-2.6 11.67-2.6s11.68 1.7 11.68 2.6c0 .9-4 2.6-11.68 2.6-7.66 0-11.67-1.7-11.67-2.6z" fill="#FF6B09"/></svg>