<svg width="69" height="48" fill="none" xmlns="http://www.w3.org/2000/svg"><path d="M30.4 6.91H9.94v1.53H30.4V6.91zM30.4 12.62H13v1.54h17.4v-1.54zM30.4 18.34H9.94v1.53H30.4v-1.53zM30.4 24.05H13v1.53h17.4v-1.53zM30.4 29.76H9.94v1.53H30.4v-1.53zM30.4 35.47H13V37h17.4v-1.53zM58.49 6.91H38.03v1.53h20.46V6.91zM55.42 12.62h-17.4v1.54h17.4v-1.54zM58.49 18.34H38.03v1.53h20.46v-1.53zM55.42 24.05h-17.4v1.53h17.4v-1.53zM58.49 29.76H38.03v1.53h20.46v-1.53zM55.42 35.47h-17.4V37h17.4v-1.53z" fill="#fff"/><path d="M65.87 5.17h-2.8V.95a.77.77 0 00-.77-.77H39.4a5.92 5.92 0 00-5.19 3.02A5.93 5.93 0 0029.02.18H6.12a.77.77 0 00-.76.77v4.22h-2.8a.77.77 0 00-.77.76v41.12c0 .42.34.77.76.77h63.32c.43 0 .77-.35.77-.77V5.93a.77.77 0 00-.77-.76zM39.4 1.72h22.13v41.02H37.77c-1.06 0-2.11.45-2.8 1.02V6.13a4.4 4.4 0 014.43-4.41zm-32.5 0h22.12c2.4 0 4.34 1.86 4.42 4.24V43.76a4.48 4.48 0 00-2.77-1.02H6.89V1.72zM3.31 6.7h2.04v36.8c0 .43.34.77.77.77h24.54c1.17 0 2.3.77 2.66 2.01H3.32V6.7zM65.1 46.28H35.1a2.77 2.77 0 012.67-2H62.3c.42 0 .76-.35.76-.77V6.7h2.05v39.58z" fill="#fff"/></svg>