<svg width="46" height="48" fill="none" xmlns="http://www.w3.org/2000/svg"><g clip-path="url(#clip0)" fill="#FF6B09"><path d="M45.23 7.44a.41.41 0 00-.09-.14L37.92.1A.45.45 0 0037.8 0L37.78 0a.44.44 0 00-.15-.03H5.86c-.24 0-.43.19-.43.42v43.97l.01.08.01.04.01.04.02.04.02.04.05.06 3.25 3.25c.17.16.44.16.6 0l2.95-2.95 2.95 2.95a.42.42 0 00.6 0l2.95-2.95 2.94 2.95c.17.16.44.16.6 0l2.95-2.95 2.95 2.95c.16.16.43.16.6 0l2.95-2.95 2.94 2.95a.42.42 0 00.6 0l2.95-2.95 2.95 2.95c.16.16.43.16.6 0l3.25-3.25.01-.02.04-.04.02-.05.02-.03.01-.06.01-.02.01-.08V7.6a.45.45 0 00-.03-.16zm-7.18-6.02l5.75 5.76h-5.75V1.42zm6.36 42.76L41.59 47l-2.95-2.94a.43.43 0 00-.6 0L35.09 47l-2.94-2.94a.43.43 0 00-.6 0L28.6 47l-2.95-2.94a.42.42 0 00-.6 0L22.1 47l-2.94-2.94a.43.43 0 00-.6 0L15.6 47l-2.95-2.94a.43.43 0 00-.6 0L9.11 47 6.3 44.18V.82h30.9V7.6c0 .24.2.43.43.43h6.79v36.15z"/><path d="M9.47 4.85h13.96a.43.43 0 000-.85H9.47a.43.43 0 100 .85zM9.47 7.49h22.38a.43.43 0 000-.86H9.47a.43.43 0 100 .86zM9.04 9.85v13.8c0 .24.2.43.43.43h31.76c.23 0 .42-.2.42-.43V9.85a.43.43 0 00-.42-.42H9.47c-.24 0-.43.19-.43.42zm9.42.43H40.8v3.67H18.46v-3.67zm0 4.52H40.8v3.66H18.46V14.8zm0 4.52H40.8v3.9H18.46v-3.9zM9.9 10.28h7.71v3.67H9.9v-3.67zm0 4.52h7.71v3.66H9.9V14.8zm0 4.52h7.71v3.9H9.9v-3.9zM41.23 26H9.47c-.24 0-.43.18-.43.42v13.8a.43.43 0 10.86 0v-4.34h7.71v4.34a.43.43 0 00.85 0v-4.34H40.8v4.34a.43.43 0 00.85 0v-13.8a.42.42 0 00-.42-.43zM17.6 35.02H9.9v-3.66h7.71v3.66zm0-4.52H9.9v-3.66h7.71v3.66zm23.2 4.52H18.45v-3.66H40.8v3.66zm0-4.52H18.45v-3.66H40.8v3.66zM3.42-.03C3.2-.03 3 .16 3 .39v43.97a.43.43 0 00.86 0V.39c0-.23-.2-.42-.43-.42zM1.08-.03C.84-.03.65.16.65.39v43.97a.43.43 0 00.85 0V.39a.43.43 0 00-.42-.42z"/></g><defs><clipPath id="clip0"><path fill="#fff" d="M0 0h45.39v48H0z"/></clipPath></defs></svg>