<svg width="30" height="18" fill="none" xmlns="http://www.w3.org/2000/svg"><path d="M25.82 11.3c1 .98 2.04 1.9 2.94 2.96.4.48.76.97 1.05 1.52.4.78.04 1.65-.66 1.7h-4.38A3.37 3.37 0 0122 16.33c-.6-.62-1.16-1.27-1.74-1.91-.24-.26-.5-.5-.8-.7-.59-.39-1.1-.27-1.45.35a4.6 4.6 0 00-.46 2.04c-.04 1.03-.35 1.3-1.39 1.35-2.2.1-4.3-.23-6.25-1.34a13.82 13.82 0 01-4.21-3.94A53.04 53.04 0 01.15 2.3c-.35-.77-.1-1.2.77-1.2 1.42-.03 2.85-.03 4.28 0 .57 0 .96.33 1.18.88.77 1.9 1.72 3.7 2.9 5.37.32.45.64.9 1.1 1.2.5.36.89.24 1.13-.32.15-.36.22-.75.25-1.13.11-1.32.13-2.64-.07-3.95-.12-.82-.58-1.35-1.4-1.5-.42-.09-.36-.24-.16-.48.36-.41.69-.67 1.34-.67h4.94c.78.15.95.5 1.06 1.29v5.48c0 .3.16 1.2.7 1.4.44.15.73-.2.99-.48a17.01 17.01 0 002.78-4.27c.33-.68.62-1.38.9-2.08.2-.52.53-.78 1.12-.76h4.75c.14 0 .28 0 .42.02.8.14 1.02.49.77 1.27-.39 1.23-1.14 2.25-1.89 3.28-.79 1.1-1.64 2.15-2.42 3.26-.73 1-.67 1.51.23 2.39z" fill="#436EAB"/></svg>