<svg aria-hidden="true" style="position:absolute;width:0;height:0" xmlns="http://www.w3.org/2000/svg" overflow="hidden"><defs><symbol id="icon-github" viewBox="0 0 32 32"><path d="M16 .396c-8.84 0-16 7.164-16 16 0 7.071 4.584 13.067 10.94 15.18.8.151 1.093-.344 1.093-.769 0-.38-.013-1.387-.02-2.72-4.451.965-5.389-2.147-5.389-2.147-.728-1.847-1.78-2.34-1.78-2.34-1.449-.992.112-.972.112-.972 1.607.112 2.451 1.648 2.451 1.648 1.427 2.447 3.745 1.74 4.66 1.331.144-1.035.556-1.74 1.013-2.14-3.553-.4-7.288-1.776-7.288-7.907 0-1.747.62-3.173 1.647-4.293-.18-.404-.72-2.031.14-4.235 0 0 1.34-.429 4.4 1.64 1.28-.356 2.64-.532 4-.54 1.36.008 2.72.184 4 .54 3.04-2.069 4.38-1.64 4.38-1.64.86 2.204.32 3.831.16 4.235 1.02 1.12 1.64 2.547 1.64 4.293 0 6.147-3.74 7.5-7.3 7.893.56.48 1.08 1.461 1.08 2.96 0 2.141-.02 3.861-.02 4.381 0 .42.28.92 1.1.76C27.42 29.455 32 23.455 32 16.395c0-8.836-7.164-16-16-16z"/></symbol><symbol id="icon-advantages-guarantee" viewBox="0 0 31 32"><path fill="var(--color1, #ff6b09)" d="M6.947 14.567c0 .227-.344.227-.344 0a8.725 8.725 0 0117.45 0c0 .227-.342.227-.342 0 0-3.257-5.351-3.259-5.351 0 0 .227-.352.227-.352 0 0-3.248-5.359-3.248-5.359 0 0 .227-.352.227-.352 0 0-3.242-5.349-3.265-5.349 0zm5.38-1.265c.093-1.874.388-3.556.816-4.839.342-1.019.775-1.794 1.265-2.228a8.386 8.386 0 00-7.322 6.807c1.267-1.827 4.191-1.681 5.242.259zm5.654-.084c-.095-1.803-.381-3.415-.793-4.645-1.063-3.182-2.656-3.182-3.72 0-.412 1.23-.696 2.842-.793 4.645 1.143-1.942 4.163-1.942 5.306 0zm5.59-.176a8.382 8.382 0 00-7.322-6.807c.493.434.923 1.209 1.265 2.228.429 1.284.723 2.964.816 4.839 1.056-1.95 3.99-2.066 5.242-.26zm-9.388 5.516v-1.771c-.319.212-.57.54-.57.94 0 .389.255.647.57.832zm.344.551c-.612-.28-1.257-.608-1.257-1.382 0-.799.608-1.199 1.257-1.498v2.88zm1.946 2.123v1.792c.324-.214.577-.544.577-.943 0-.394-.26-.659-.577-.849zm-.341-.552c.614.284 1.263.622 1.263 1.401 0 .801-.612 1.201-1.263 1.497V20.68z"/><path fill="var(--color1, #ff6b09)" d="M16.473 14.771c1.409.325 2.857 1.38 2.857 2.955 0 1.35-2.281 1.3-2.281 0 0-.401-.253-.731-.576-.943v2.521c1.304.427 2.861 1.191 2.861 2.776 0 1.578-1.448 2.631-2.861 2.954-.006 1.502-2.286 1.5-2.29-.002-.803-.185-1.501-.56-2.006-1.056-.529-.523-.842-1.18-.842-1.895 0-1.329 2.278-1.329 2.278 0 0 .397.251.725.57.937v-2.519c-1.294-.418-2.859-1.205-2.859-2.776 0-1.578 1.448-2.63 2.859-2.954.006-1.501 2.286-1.499 2.291.002zm-1.946.003v.274c-1.341.266-2.861 1.125-2.861 2.673 0 1.489 1.668 2.157 2.861 2.525v3.328c-.645-.295-1.257-.692-1.257-1.495 0-.877-1.594-.877-1.594 0 0 .62.276 1.193.742 1.65.591.585 1.308.863 2.109 1.022v.276c0 1.056 1.605 1.056 1.605 0v-.274c1.345-.267 2.859-1.126 2.859-2.673 0-1.503-1.665-2.15-2.859-2.527v-3.326c.647.295 1.263.692 1.263 1.499 0 .855 1.592.89 1.592 0 0-1.547-1.512-2.408-2.855-2.675v-.276c0-1.056-1.605-1.056-1.605 0z"/><path fill="none" stroke="var(--color1, #ff6b09)" stroke-width="1.016" d="M30.387 4.945V.762H.508v30.476h29.879v-4.183"/></symbol><symbol id="icon-advantages-method" viewBox="0 0 31 32"><path fill="var(--color1, #ff6b09)" d="M24.717 5.25H14.469a1.21 1.21 0 00-1.209 1.21v4.241l-7.613 3.196a.249.249 0 00-.034.441l.001.001.971.581v6.192a1.12 1.12 0 00-.869 1.089v.597c0 .137.111.248.248.248h1.739a.248.248 0 00.248-.248v-.597a1.12 1.12 0 00-.862-1.087l-.008-.002v-5.896l.768.459c-.023.177-.003-.308-.011 2.883 0 1.049 2.687 1.611 5.421 1.643v4.832c0 .667.541 1.208 1.208 1.208h10.249a1.21 1.21 0 001.209-1.209c0 .034-.002-1.023 0-18.573a1.218 1.218 0 00-1.208-1.21zM7.456 22.201v.349H6.213v-.349a.622.622 0 111.243 0zm17.261 3.544H14.469a.712.712 0 01-.713-.71V23.36h11.671v1.676a.718.718 0 01-.711.711zm.711-2.883H13.756v-2.659c1.335-.015 5.425-.309 5.425-1.645-.002-2.005.003-2.818-.007-2.887l2.226-1.334a.249.249 0 00-.03-.44l-.002-.001-7.612-3.195V8.63h11.672v14.231zm-11.92-5.949c-1.376 0-4.023.178-5.173.929.007-2.297-.08-2.148.203-2.343.715-.526 2.758-.894 4.97-.894.965 0 5.176.266 5.176 1.157v2.08c-1.161-.758-3.795-.929-5.176-.929zm.248-10.453c0-.393.32-.713.713-.713h10.248c.393 0 .711.324.711.713v1.675H13.757V6.46zm-.249 4.676l7.218 3.029-1.788 1.07c-.951-.943-4.096-1.126-5.429-1.126-1.335 0-4.48.183-5.429 1.126l-1.788-1.07 7.218-3.029zm-5.172 7.422c0-.401 1.777-1.15 5.173-1.15 3.398 0 5.176.749 5.176 1.15s-1.778 1.15-5.176 1.15c-3.397 0-5.173-.749-5.173-1.15z"/><path fill="var(--color1, #ff6b09)" d="M19.593 23.732a.821.821 0 000 1.64.821.821 0 000-1.64zm0 1.145h-.012a.325.325 0 110-.65h.014-.001a.325.325 0 01-.001.65h-.001zm.945-18.184h-1.892v.496h1.892v-.496z"/><path fill="none" stroke="var(--color1, #ff6b09)" stroke-width="1.016" d="M30.387 4.945V.762H.508v30.476h29.879v-4.183"/></symbol><symbol id="icon-advantages-program" viewBox="0 0 31 32"><path fill="var(--color1, #ff6b09)" d="M7.046 26.005h17.006c.084-1.939-.054-5.157-1.247-6.689l-.043-.055-2.606-1.308a2.512 2.512 0 00.1-.581.907.907 0 00-.07-.35l.002.006c-.43-1.029-1.339-1.57-1.84-1.801.152-.307.25-.637.298-.974a.838.838 0 00.584-.598l.001-.006.304-1.235a.834.834 0 00-.281-.847l-.002-.001c.857-1.947-.579-3.784-.657-3.881-1.556-1.682-3.521-1.367-3.624-1.349-2.836.593-3.93 2.767-3.312 5.316a.836.836 0 00-.192.762l.305 1.237a.837.837 0 00.576.6l.006.001c.09.628.352 1.183.735 1.63l-.004-.004v.979c-4.069 2.084-1.491.754-4.752 2.404-.007.03-1.53 1.65-1.304 6.45l.014.293zm16.415-.615h-2.799v-1.175l1.851-4.238c.927 1.539.962 4.478.948 5.413zm-3.82-7.983c-.108 1.24-.789.866-1.209 1.821-.33-.363-.43-.799-.34-1.265.16-.856-.363-1.11-.234-2.01l.02-.021v-.003a6.52 6.52 0 00.144-.174c1.107.483 1.641 1.381 1.619 1.651zm-5.94-.975a3.128 3.128 0 001.805.568c.646 0 1.247-.194 1.747-.528l-.012.007c.071.707.347.849.249 1.369a2.377 2.377 0 00-.034.285l-1.906 2.149-2.437-2.747.588-.307v-.796zm-.766-2.629V10.52c.297-.549.701-.946 1.204-1.185 1.346.762 2.895 1.898 3.934 3.043-.001 1.457.005 1.46-.005 1.58l-.001.008a2.57 2.57 0 01-2.564 2.419 2.578 2.578 0 01-2.569-2.566v-.016.001zm-.38 4.03l2.994 3.376 2.01-2.266a2 2 0 00.184.378l-2.194 2.744-3.273-4.092.278-.14zm6.13-4.526v-.951l.229-.262c.013.482.065-.087-.229 1.213zm-3.598-6.365c.122.008 1.755-.249 3.047 1.145.051.064 1.102 1.418.68 2.9-.145-.66-.396-1.505-.795-1.908l-.435.434c.393.398.651 1.611.75 2.239-1.803-1.887-4.13-3.082-4.162-3.102-.117.073-1.101.26-1.816 1.649l-.034.067v1.021l-.09.001c-.454-2.193.416-3.936 2.856-4.447zm-2.921 5.08l.155.627v.658l-.257-1.041c-.038-.155.077-.213.103-.245zm-.45 6.232l3.833 4.794 2.594-3.244c.282.252.418.288 1.016.596l-.202-.685c-.051-.174.152-.452.274-.58.275-.151.501-.361.667-.614l.004-.007 2.116 1.062-1.969 4.508v1.304h-9.001v-1.305l-1.97-4.507 2.637-1.324zm-3.132 1.724l1.851 4.236v1.176H7.636c-.014-.935.02-3.872.947-5.412z"/><path fill="none" stroke="var(--color1, #ff6b09)" stroke-width="1.016" d="M30.387 4.945V.762H.508v30.476h29.879v-4.183"/></symbol><symbol id="icon-burger-menu" viewBox="0 0 32 32"><path d="M6.4 11.734V9.6h19.2v2.134H6.4zm0 5.332h19.2v-2.133H6.4v2.133zm0 5.334h19.2v-2.134H6.4V22.4z"/></symbol><symbol id="icon-check-list-marker" viewBox="0 0 41 32"><path fill="var(--color1, #ff6b09)" d="M34.457 1.513c-1.486.663-2.907 1.477-4.265 2.379-2.731 1.797-5.227 3.936-7.57 6.217a84.919 84.919 0 00-6.455 7.124l-.125.16-2.823 3.467L3.624 6.481.001 16.522l12.978 15.477c1.257-2.551 2.471-5.07 3.662-7.257.297-.558.606-1.081.901-1.614 0 0 1.522-2.674 1.925-3.351a80.284 80.284 0 015.381-8.016l-.144.196c1.909-2.491 3.984-4.869 6.336-6.962a28.528 28.528 0 013.638-2.804l.11-.067A20.523 20.523 0 0138.909.045l.145-.047a21.164 21.164 0 00-4.722 1.568l.13-.055z"/></symbol><symbol id="icon-circle-list-marker" viewBox="0 0 32 32"><path fill="var(--color1, #ff6b09)" d="M16 32C7.163 32 0 24.837 0 16S7.163 0 16 0s16 7.163 16 16-7.163 16-16 16z"/></symbol><symbol id="icon-close-menu" viewBox="0 0 32 32"><path d="M23.734 10.304L22.23 8.8l-5.963 5.962L10.305 8.8l-1.504 1.504 5.962 5.962-5.962 5.963 1.504 1.504 5.962-5.963 5.963 5.963 1.504-1.504-5.963-5.963 5.963-5.962z"/></symbol><symbol id="icon-fire-background" viewBox="0 0 28 32"><path d="M28.731 21.831c-.373-.836-.887-1.659-1.639-2.609-1.896-2.386-2.474-7.706-2.481-7.757a.642.642 0 00-.64-.573.652.652 0 00-.484.215v.001c-2.262 2.533-1.311 6.443-.797 8.006.141.427.296.931.405 1.442.835 4.127-.778 5.996-1.157 6.373-.366.102-.617.051-.848-.198-.797-.874-1.06-3.738-.688-7.47a7.66 7.66 0 00-.051-2.08c-.786-4.587-3.668-7.529-4.402-8.561-2.018-2.985-2.224-7.955-2.23-7.999a.641.641 0 00-1.002-.504c-3.368 2.29-3.078 7.808-2.609 10.889.109.714.321 1.442.688 2.36 1.305 3.285-.257 7.527-.27 7.566s-.026.07-.032.108c-.199 1.046-.533 1.671-.906 1.671a.428.428 0 01-.122-.019c-.456-.096-.694-.581-.7-1.002-.026-5.441-5.482-7.272-5.54-7.291a.64.64 0 00-.681.191.627.627 0 00-.09.702c.064.134.27.721.129 2.794a23.848 23.848 0 01-1.009 5.473C.277 27.795.482 31.807.495 31.998c.998 10.864 16.609 12.768 25.873 6.647 1.015-.67 1.844-1.435 2.455-2.277 3.419-4.721 1.407-11.131-.09-14.538zM4.985 32.21a.637.637 0 01-.604.67h-.039a.64.64 0 01-.643-.6 22.933 22.933 0 01.026-2.966.645.645 0 011.286.09 20.55 20.55 0 00-.026 2.807zm.315-5.652a.638.638 0 01-.636.561c-.026 0-.051 0-.084-.006a.643.643 0 01-.559-.708l.308-2.462a.65.65 0 01.72-.555.64.64 0 01.559.714L5.3 26.558zM24.384 8.727A.638.638 0 0123.847 8c.04-.259.272-1.586.902-2.253a.645.645 0 011.111.436.634.634 0 01-.174.437c-.267.283-.494 1.091-.57 1.575a.643.643 0 01-.733.533zM.955 11.905c-.123-.474-.429-1.257-.722-1.512-.267-.232-.294-.635-.06-.9s.639-.292.907-.059c.693.603 1.054 1.901 1.12 2.154a.644.644 0 01-1.246.317z"/></symbol><symbol id="icon-fire-list-marker" viewBox="0 0 24 32"><path fill="var(--color1, #ff6b09)" d="M21.909 16.592c-.285-.635-.675-1.259-1.248-1.982-1.44-1.813-1.882-5.856-1.886-5.896a.488.488 0 00-.333-.41l-.003-.001a.49.49 0 00-.519.139c-1.72 1.925-.997 4.898-.606 6.085.109.326.226.709.309 1.096.635 3.136-.592 4.558-.88 4.845-.278.077-.469.038-.645-.15-.608-.664-.808-2.842-.523-5.678a5.837 5.837 0 00-.04-1.581c-.598-3.486-2.79-5.722-3.349-6.506C10.65 4.283 10.495.505 10.49.473A.488.488 0 009.725.09l.002-.001C7.167 1.83 7.386 6.025 7.743 8.366c.083.544.243 1.096.523 1.794.992 2.496-.197 5.722-.206 5.75s-.019.053-.024.083c-.152.795-.406 1.27-.688 1.27a.346.346 0 01-.097-.017l.002.001c-.347-.072-.528-.44-.533-.76-.019-4.136-4.17-5.528-4.214-5.542s-.096-.024-.15-.024a.483.483 0 00-.368.169l-.001.001a.474.474 0 00-.068.536l-.001-.003c.05.102.206.549.099 2.125a18.12 18.12 0 01-.768 4.16C.721 19.63.417 21.607.417 23.656c0 .234.004.468.012.7l-.001-.034c.758 8.256 12.634 9.704 19.682 5.051a7.183 7.183 0 001.854-1.713l.013-.018c2.602-3.587 1.072-8.459-.067-11.05zM3.845 24.48l.001.025c0 .26-.204.472-.46.486h-.034a.486.486 0 01-.485-.455v-.001c-.043-.707-.034-1.45.019-2.256a.493.493 0 01.525-.448h-.002a.488.488 0 01.457.487l-.001.031v-.001a15.808 15.808 0 00-.021 2.134zm.24-4.294a.485.485 0 01-.481.427H3.6c-.021 0-.04 0-.064-.005a.49.49 0 01-.426-.542v.002l.235-1.872a.493.493 0 01.55-.42h-.002a.487.487 0 01.425.546v-.002l-.235 1.866zM18.602 6.632a.486.486 0 01-.409-.555v.003c.032-.197.208-1.205.688-1.712a.491.491 0 01.69-.022.477.477 0 01.022.685c-.203.216-.376.83-.432 1.197a.49.49 0 01-.563.404h.003zM.778 9.048c-.093-.36-.326-.955-.549-1.149a.48.48 0 01-.046-.685.49.49 0 01.692-.044H.874c.526.459.8 1.445.851 1.638a.483.483 0 01-.348.588l-.003.001a.489.489 0 01-.594-.346l-.001-.003z"/></symbol><symbol id="icon-how-audiobook" viewBox="0 0 37 32"><path d="M2.381 29.453h12.23a3.743 3.743 0 003.367 2.115h.801a3.737 3.737 0 003.356-2.093l.01-.022h12.237a2.288 2.288 0 002.285-2.286V5.262a2.288 2.288 0 00-2.285-2.285h-1.235V1.956A1.525 1.525 0 0031.623.433H5.132a1.525 1.525 0 00-1.524 1.523v1.021H2.381A2.288 2.288 0 00.095 5.262v21.905a2.288 2.288 0 002.286 2.286zm29.24-4.702H19.142V7.046c2.885.377 5.121 2.845 5.121 5.831v.687l-.18-.04a.763.763 0 00-.907.575l-.001.005-1.213 5.52a.762.762 0 00.575.906l.005.001 2.622.578a1.944 1.944 0 002.318-1.492l.702-3.192a1.953 1.953 0 00-1.472-2.321l-.013-.003-.912-.201v-1.023c0-3.827-2.917-6.987-6.644-7.371V1.955h12.48l-.002 22.796zM24.5 15.177l1.871.412a.422.422 0 01.325.508l-.702 3.191a.45.45 0 01-.507.331l-1.874-.413.887-4.029zM5.132 1.955h12.487v3.55c-3.731.381-6.651 3.542-6.651 7.372v1.022l-.913.202a1.945 1.945 0 00-1.218.846l-.005.008a1.91 1.91 0 00-.257 1.482l-.003-.013.7 3.189a1.961 1.961 0 002.339 1.493l-.013.002 2.611-.577a.763.763 0 00.578-.911l.001.005-1.213-5.519a.76.76 0 00-.914-.579l.005-.001-.174.038v-.685c0-2.988 2.24-5.458 5.128-5.832v17.707H5.133V1.957zm7.117 13.222l.887 4.029-1.863.411a.432.432 0 01-.511-.325l-.001-.003-.702-3.196a.42.42 0 01.056-.321l-.001.002a.429.429 0 01.265-.186l.003-.001 1.867-.412zM1.62 5.262c0-.42.341-.762.762-.762h1.227v20.251a1.526 1.526 0 001.524 1.524h26.491a1.525 1.525 0 001.524-1.523V4.5h1.235c.42 0 .761.342.761.762v21.905c0 .42-.341.762-.761.762H21.628a.764.764 0 00-.729.539 2.226 2.226 0 01-2.126 1.577h-.785a2.23 2.23 0 01-2.13-1.571l-.004-.016a.762.762 0 00-.725-.529H2.382a.763.763 0 01-.762-.762V5.262z"/></symbol><symbol id="icon-how-author" viewBox="0 0 27 32"><path d="M-.105 31.754H27.25c.136-3.12-.088-8.296-2.006-10.759l-.069-.088-4.191-2.104c.091-.307.136-.588.154-.795a1.461 1.461 0 00-.105-.702l.004.01c-.691-1.654-2.154-2.525-2.959-2.896.229-.455.397-.983.476-1.539l.003-.027c.466-.134.823-.5.94-.962l.002-.009.49-1.988a1.336 1.336 0 00-.158-1.029l.003.006a1.35 1.35 0 00-.297-.339l-.002-.002c1.379-3.133-.931-6.087-1.057-6.243C15.977-.416 12.816.09 12.649.12c-4.561.955-6.321 4.45-5.327 8.549a1.34 1.34 0 00-.307 1.235l-.002-.009.492 1.99c.119.478.483.837.935.967a5.114 5.114 0 001.183 2.621l-.006-.007v1.575c-6.546 3.352-2.398 1.213-7.644 3.867-.01.049-2.461 2.654-2.097 10.374l.022.472zm26.404-.99h-4.502v-1.891l2.977-6.817c1.492 2.476 1.547 7.203 1.524 8.708zm-6.144-12.841c-.174 1.996-1.268 1.393-1.944 2.93-.531-.584-.691-1.285-.548-2.035.258-1.377-.583-1.786-.374-3.233l.031-.033v-.005c.018-.02.184-.218.232-.28 1.781.776 2.639 2.22 2.604 2.655zM10.6 16.355a5.03 5.03 0 002.903.913 5.047 5.047 0 002.809-.848l-.019.012c.114 1.137.558 1.365.401 2.203a3.52 3.52 0 00-.054.449v.01l-3.067 3.455-3.92-4.419.946-.494v-1.281zm-1.233-4.23V6.843c.477-.882 1.127-1.522 1.936-1.906 2.165 1.226 4.657 3.054 6.329 4.894-.002 2.343.007 2.349-.009 2.542l-.001.012c-.131 2.128-1.88 3.892-4.124 3.892-2.181 0-3.992-1.712-4.123-3.913a2.831 2.831 0 01-.008-.215v-.025.001zm-.611 6.482l4.816 5.43 3.234-3.645c.074.213.177.414.296.609l-3.53 4.414-5.263-6.583.447-.225zm9.862-7.278v-1.53l.368-.422c.02.775.104-.139-.368 1.952zm-5.789-10.24c.196.012 2.824-.4 4.901 1.843.082.102 1.773 2.281 1.093 4.665-.233-1.061-.638-2.42-1.279-3.068l-.7.697c.633.64 1.048 2.591 1.206 3.602-2.9-3.035-6.642-4.957-6.694-4.989-.187.116-1.771.417-2.921 2.653l-.054.106V8.24l-.146.001c-.731-3.528.669-6.331 4.593-7.153zM8.132 9.261l.248 1.008v1.06l-.413-1.675c-.061-.249.124-.344.165-.394zm-.725 10.023l6.166 7.711 4.172-5.218c.454.406.672.464 1.634.959l-.324-1.101c-.082-.279.244-.728.441-.933a3.008 3.008 0 001.073-.987l.007-.011 3.404 1.709-3.168 7.251v2.099H6.335v-2.099l-3.169-7.25 4.242-2.13zm-5.038 2.774l2.978 6.815v1.891H.845c-.022-1.505.033-6.23 1.524-8.706z"/></symbol><symbol id="icon-how-book" viewBox="0 0 44 32"><path d="M19.6 4.608H5.96v1.021H19.6V4.608zm0 3.808H8.003v1.021H19.6V8.416zm0 3.808H5.96v1.021H19.6v-1.021zm0 3.808H8.003v1.021H19.6v-1.021zm0 3.808H5.96v1.021H19.6V19.84zm0 3.808H8.003v1.021H19.6v-1.021zm18.723-19.04h-13.64v1.021h13.64V4.608zm-2.042 3.808H24.684v1.021h11.597V8.416zm2.042 3.808h-13.64v1.021h13.64v-1.021zm-2.042 3.808H24.684v1.021h11.597v-1.021zm2.042 3.808h-13.64v1.021h13.64V19.84zm-2.042 3.808H24.684v1.021h11.597v-1.021z"/><path d="M43.248 3.445h-1.872V.633a.511.511 0 00-.511-.511H25.583a3.95 3.95 0 00-3.431 1.991l-.01.019A3.955 3.955 0 0018.701.121H3.419a.511.511 0 00-.511.511v2.812H1.035a.511.511 0 00-.511.511v27.411c0 .282.229.511.511.511h42.213a.51.51 0 00.51-.511V3.955a.511.511 0 00-.511-.511zM25.601 1.144h14.753v27.349H24.512c-.703 0-1.405.296-1.859.68V4.076a2.932 2.932 0 012.932-2.932h.015-.001zm-21.672 0h14.774a2.924 2.924 0 012.922 2.824v.005c.001.022.003.091.007.113v25.087a2.987 2.987 0 00-1.852-.678H3.929V1.145zM1.547 4.467h1.362v24.538c0 .282.229.511.511.511h16.36c.779 0 1.531.511 1.772 1.341H1.547V4.468zm41.191 26.389H22.733a1.85 1.85 0 011.775-1.341h16.357a.511.511 0 00.511-.511V4.466h1.361v26.389z"/></symbol><symbol id="icon-how-online" viewBox="0 0 33 32"><path d="M30.175-.128H14.429a1.861 1.861 0 00-1.859 1.859V8.25L.871 13.159a.382.382 0 00-.05.678l.002.001 1.491.893v9.516A1.722 1.722 0 00.98 25.92v.917c0 .211.17.381.381.381h2.671a.38.38 0 00.381-.381v-.917a1.72 1.72 0 00-1.337-1.673v-9.06l1.179.706c-.036.272-.004-.474-.016 4.43 0 1.612 4.129 2.476 8.33 2.525v7.425a1.86 1.86 0 001.858 1.856h15.746a1.858 1.858 0 001.857-1.857c0 .051-.002-1.573 0-28.539a1.87 1.87 0 00-1.856-1.859zM3.651 25.918v.537H1.743v-.537a.955.955 0 111.909 0zm26.524 5.446H14.428c-.376 0-.708-.189-.905-.478l-.002-.004a1.075 1.075 0 01-.188-.611v-2.575h17.935v2.575c0 .596-.497 1.092-1.092 1.092zm1.092-4.429H13.331v-4.086c2.051-.023 8.336-.475 8.336-2.527-.003-3.08.005-4.33-.01-4.436l3.421-2.049a.382.382 0 00-.046-.676l-.002-.001-11.697-4.91V5.068h17.935v21.868zm-18.316-9.143c-2.113 0-6.182.273-7.949 1.427.011-3.53-.123-3.3.312-3.6 1.098-.808 4.238-1.373 7.637-1.373 1.482 0 7.954.407 7.954 1.777v3.196c-1.784-1.165-5.832-1.428-7.954-1.428zm.381-16.061A1.096 1.096 0 0114.428.636h15.745c.605 0 1.093.498 1.093 1.095v2.574H13.332V1.731zm-.381 7.184l11.09 4.655-2.748 1.644c-1.46-1.449-6.293-1.729-8.342-1.729-2.051 0-6.884.281-8.342 1.729L1.86 13.57l11.091-4.655zM5.002 20.321c0-.616 2.73-1.768 7.949-1.768 5.222 0 7.954 1.151 7.954 1.767s-2.732 1.768-7.954 1.768c-5.219 0-7.949-1.151-7.949-1.768z"/><path d="M22.301 28.271a1.261 1.261 0 101.26 1.26c0-.694-.565-1.26-1.26-1.26zm0 1.759a.5.5 0 01-.001-.996h.001a.498.498 0 010 .996zm1.454-27.94h-2.907v.762h2.907V2.09z"/></symbol><symbol id="icon-how-program" viewBox="0 0 31 32"><path d="M30.151 4.961l-.001-.003a.284.284 0 00-.06-.09L25.283.062a.237.237 0 00-.039-.032l-.001-.001c-.003-.002-.007-.003-.009-.006A.518.518 0 0025.2.004l-.002-.001-.011-.004a.28.28 0 00-.098-.02H3.912a.284.284 0 00-.284.284v29.311a.33.33 0 00.005.055l.007.023.01.03.013.025.013.023a.26.26 0 00.033.04l2.167 2.167a.283.283 0 00.402 0l1.964-1.964 1.964 1.964c.051.052.122.084.201.084s.15-.032.201-.084l1.963-1.963 1.965 1.963a.283.283 0 00.402 0l1.964-1.963 1.963 1.963a.283.283 0 00.402 0l1.965-1.964 1.963 1.964a.282.282 0 00.402 0l1.964-1.963 1.965 1.963a.283.283 0 00.402 0l2.176-2.178c.007-.009.017-.019.023-.029.007-.009.011-.02.016-.03l.01-.019c.006-.013.009-.027.012-.04l.005-.013a.324.324 0 00.005-.056V5.067a.314.314 0 00-.023-.111l.001.002zM25.367.949l3.836 3.835h-3.836V.949zm4.237 28.507l-1.88 1.88-1.965-1.964a.283.283 0 00-.402 0l-1.963 1.964-1.963-1.964a.287.287 0 00-.402 0l-1.965 1.964-1.963-1.964c-.051-.052-.122-.084-.201-.084s-.15.032-.201.084l-1.963 1.964-1.965-1.964a.287.287 0 00-.402 0l-1.963 1.964-1.964-1.964a.283.283 0 00-.402 0l-1.965 1.964-1.88-1.88V.547h20.603v4.522c0 .157.127.284.284.284h4.521v24.103z"/><path d="M6.313 3.234h9.303a.284.284 0 100-.568H6.313a.284.284 0 100 .568zm0 1.757h14.92a.284.284 0 100-.568H6.313a.284.284 0 100 .568zm-.284 1.577v9.199c0 .157.127.284.285.284h21.172a.284.284 0 00.284-.284V6.568a.284.284 0 00-.284-.284H6.313a.284.284 0 00-.284.284zm6.279.284h14.893v2.445H12.308V6.852zm0 3.013h14.893v2.444H12.308V9.865zm0 3.012h14.893v2.605H12.308v-2.605zm-5.71-6.025h5.142v2.445H6.598V6.852zm0 3.013h5.142v2.444H6.598V9.865zm0 3.012h5.142v2.605H6.598v-2.605zm20.888 4.452H6.313a.284.284 0 00-.284.284v9.198a.284.284 0 10.568 0v-2.889h5.143v2.889a.284.284 0 10.568 0v-2.889h14.893v2.889a.284.284 0 10.568 0v-9.199a.283.283 0 00-.283-.283h-.001zM11.74 23.353H6.598V20.91h5.142v2.443zm0-3.012H6.598v-2.444h5.142v2.444zm15.461 3.012H12.308V20.91h14.893v2.443zm0-3.012H12.308v-2.444h14.893v2.444zM2.281-.021a.284.284 0 00-.284.284v29.311a.284.284 0 10.568 0V.263a.284.284 0 00-.284-.284H2.28zm-1.562 0H.718a.284.284 0 00-.284.284v29.311a.284.284 0 10.568 0V.263a.284.284 0 00-.283-.284z"/></symbol><symbol id="icon-how-support" viewBox="0 0 33 32"><path d="M1.993 12.558v2.831c0 .152.069.295.189.39a11.027 11.027 0 006.836 2.362c.741 0 1.482-.077 2.207-.224a11.826 11.826 0 004.872 1.032h.019-.001c1.707 0 3.351-.349 4.89-1.032 3.091.625 6.385-.046 9.043-2.138a.495.495 0 00.189-.39v-2.831c0-.415-.207-.794-.575-1.027l-3.867-2.176c.846-1.073 1.476-2.602 1.586-3.913.321-2.256-1.519-4.646-4.166-4.646a4.208 4.208 0 00-2.947 1.227c-.027.027-.058.049-.084.077-.024.025-.043.054-.067.08l-.044.053C19.316.852 17.862 0 16.148 0c-.167 0-.329.011-.491.028-.01-.001-.019-.006-.029-.006-.092 0-.287.025-.391.055-.015.004-.027.015-.041.021a4.498 4.498 0 00-3.002 2.135l-.011.021A4.17 4.17 0 009.014.797h-.01.001c-3.908 0-5.642 4.612-2.557 8.581l-3.903 2.167a1.19 1.19 0 00-.553 1.014zm19.004 4.27c-.084.041-.167.085-.251.123l-.002.001a10.84 10.84 0 01-4.596 1.006h-.033.002-.025c-2.509 0-4.823-.837-6.677-2.248l.027.02v-2.87c0-.097.047-.184.102-.221l4.542-2.525c.565.48 1.287.832 2.035.832.72 0 1.499-.357 2.052-.843l4.487 2.52a.277.277 0 01.131.237v2.87c-.52.395-1.108.76-1.729 1.069l-.064.029zm8.157-4.447a.202.202 0 01.092.169v2.595a9.988 9.988 0 01-6.737 1.98c.418-.265.771-.515 1.111-.782l-.028.022a.496.496 0 00.19-.39V12.86c0-.435-.219-.835-.61-1.087l-2.384-1.339.58-.321c.703.573 1.307.744 1.848.744.663 0 1.36-.325 1.878-.759l4.06 2.284zM23.216 1.788c1.381 0 2.593.902 3.021 2.142a3.698 3.698 0 01-2.235-1.14L24 2.788a.497.497 0 00-.787.082l-.001.002a3.695 3.695 0 01-2.526 1.757l-.022.003v-.003l.001-.084c0-.201-.012-.398-.036-.593l.002.023-.007-.066a5.316 5.316 0 00-.13-.647l.009.038c.563-.902 1.609-1.513 2.713-1.513zm-2.66 3.855a4.652 4.652 0 003.157-1.751l.008-.01a4.684 4.684 0 002.701 1.056c-.007 1.792-1.471 4.927-3.206 4.927-1.337 0-2.479-1.912-2.905-3.238.109-.341.187-.669.245-.983zm.101 3.73l-.886.491-.894-.503c.331-.413.635-.893.896-1.413.25.527.551 1.01.884 1.425zM19.32 6.465c-.478 1.427-1.705 3.49-3.2 3.49-1.741 0-3.225-2.864-3.508-4.696.075-.019 2.429.127 4.049-2.001.823.688 1.932 1.143 3.011 1.188.013.647-.144 1.407-.352 2.019zM16.149.991c2.78 0 3.309 2.393 3.353 2.443a4.124 4.124 0 01-2.561-1.274l-.002-.002a.494.494 0 00-.788.085l-.001.002a4.08 4.08 0 01-3.52 2.022h-.063.003c.136-1.822 1.596-3.274 3.58-3.274zm-3.688 6.947c.257.515.563 1.007.913 1.439l-.875.487-.907-.51c.343-.439.635-.929.869-1.415zm-3.455-6.15c1.125 0 2.155.571 2.729 1.514-.029.1-.107.498-.117.548a3.685 3.685 0 01-1.819-1.061l-.002-.002a.494.494 0 00-.787.085l-.001.002a3.717 3.717 0 01-3.177 1.815h-.001c.158-1.627 1.518-2.9 3.174-2.9zm-3.13 3.889a4.699 4.699 0 003.635-1.786l.007-.01c.57.468 1.264.806 2.026.956l.029.005c.029.575.179 1.273.35 1.789-.273.84-.799 1.84-1.451 2.505l-.013.01c-.408.43-.988.719-1.444.719-1.594 0-2.841-2.508-3.14-4.188zm-2.891 6.881c0-.075.033-.139.067-.162l4.116-2.284c.247.206.304.229.353.265.485.323.929.483 1.534.483.645 0 1.233-.273 1.749-.694.029-.023.06-.045.088-.068l.587.33-2.447 1.361a1.271 1.271 0 00-.584 1.069v3.118c0 .152.07.295.19.389.317.249.727.539 1.083.761a10.018 10.018 0 01-6.737-1.98v-2.587z"/><path d="M31.259 20.781a2.042 2.042 0 00-1.102-.319c-.329 0-.641.077-.917.215l.012-.005-6.12 2.957a2.11 2.11 0 00-2.106-2.072l-3.51.001c-1.73-1.504-3.941-2.425-5.952-2.473-1.983-.047-3.762-.06-4.592-.064v-1.002H0v11.516h6.972v-1.379c1.911 1.098 6.939 3.846 9.325 3.846.053 0 .107-.001.157-.005 4.196-.235 14.091-7.198 14.743-7.66a2.083 2.083 0 001.034-1.796v-.006a2.06 2.06 0 00-.965-1.747l-.009-.005zM5.98 28.542H.992v-9.533H5.98v9.533zm24.707-5.057a.385.385 0 00-.045.028l.001-.001c-.103.073-10.281 7.271-14.245 7.493a2.179 2.179 0 01-.12.003c-2.093 0-7.195-2.753-9.307-4.001V20.01c.827.003 2.596.017 4.569.063 1.837.044 3.876.921 5.455 2.346l.141.127h3.888a1.119 1.119 0 010 2.237h-7.142v.991h7.142a2.096 2.096 0 001.669-.834l.004-.005 6.984-3.373a1.052 1.052 0 011.053.06l-.004-.003c.323.202.508.537.508.918a1.087 1.087 0 01-.548.943l-.005.003zM16.611 12.159h-.991v.92h.991v-.92zm0 1.833h-.991v.92h.991v-.92zm0 1.835h-.991v.919h.991v-.92z"/></symbol><symbol id="icon-logo-mobile-black" viewBox="0 0 88 32"><path fill="var(--color4, #111518)" d="M12.344 4.847v12.975h-3.67v-5.06H3.67v5.06H0V4.847h3.67v4.875h5.004V4.847h3.67zm13.433 7.972c0 .024-.019.314-.055.871h-7.303c.148.519.433.92.852 1.205.433.271.971.408 1.613.408.481 0 .896-.068 1.241-.204a3.638 3.638 0 001.075-.668l1.854 1.928c-.975 1.087-2.403 1.631-4.281 1.631-1.174 0-2.207-.222-3.095-.668-.89-.445-1.582-1.063-2.077-1.854-.482-.79-.723-1.686-.723-2.687 0-.989.235-1.873.704-2.65a5.076 5.076 0 011.958-1.842l.027-.013c.84-.445 1.785-.668 2.836-.668 1.001 0 1.909.21 2.726.63a4.591 4.591 0 011.927 1.799c.482.778.723 1.705.723 2.781zm-5.357-2.707c-.544 0-1.001.154-1.372.463-.359.309-.587.728-.686 1.26h4.116c-.099-.531-.334-.951-.705-1.26-.359-.309-.81-.463-1.353-.463zm7.722-6.042h3.521v13.753h-3.521V4.07zm6.552 0h3.522v13.753h-3.522V4.07zM3.328 29.8H1.474l-.353.855H.174l1.779-3.992h.913l1.785 3.992h-.97l-.353-.855zm-.291-.702l-.632-1.528-.633 1.528h1.266zm7.321.804v1.58h-.855v-.828H6.686v.828H5.83l.007-1.58h.159c.239-.008.408-.183.508-.525s.16-.831.183-1.465l.045-1.249H9.8v3.241h.559zM7.5 27.998a8.297 8.297 0 01-.119 1.197c-.061.32-.154.555-.279.706h1.785v-2.486H7.519l-.018.583zm6.395 2.725c-.407 0-.776-.088-1.107-.263a2.056 2.056 0 01-.771-.726l-.005-.009a2.033 2.033 0 01-.279-1.036v-.033.002c0-.395.094-.749.279-1.06.191-.316.449-.561.776-.736a2.3 2.3 0 011.112-.268c.346 0 .658.061.936.183.281.121.518.299.704.521l.002.003-.593.547a1.273 1.273 0 00-.987-.468h-.018.001c-.246 0-.467.055-.661.166-.193.106-.348.26-.453.446l-.003.006c-.101.185-.16.405-.16.638v.025-.001c0 .246.053.467.16.661.11.193.262.345.456.456.194.107.415.16.662.16a1.27 1.27 0 001.004-.474l.593.548c-.19.232-.426.408-.707.53a2.344 2.344 0 01-.941.183zm4.822-1.676h-.638v1.608h-.918v-3.992h.918v1.614h.662l1.048-1.614h.975l-1.306 1.928 1.346 2.065h-1.048l-1.039-1.608zm3.547-2.384h.918v2.601l1.905-2.601h.867v3.992h-.913v-2.594l-1.905 2.594h-.873v-3.992zm5.711 0h.918v2.601l1.906-2.601h.866v3.992h-.913v-2.594l-1.905 2.594h-.872v-3.992zm1.842-.256c-.73 0-1.099-.291-1.107-.873h.633c.007.277.166.416.473.416.151 0 .268-.033.348-.103a.426.426 0 00.126-.313h.632c-.003.285-.097.502-.279.65s-.458.223-.828.223zM39.03 29.8h-1.854l-.353.855h-.947l1.78-3.992h.913l1.784 3.992h-.969l-.353-.855zm-.29-.702l-.633-1.528-.633 1.528h1.267zm6.831-2.435v3.992h-.924v-1.636h-1.814v1.636h-.924v-3.992h.924v1.575h1.814v-1.575h.924zm4.839.752h-1.899l.006 3.24h-.918v-3.992h2.817l-.006.753zm4.659-.752v3.992h-.913v-3.24h-1.368l-.029.833c-.01.494-.059.97-.146 1.433l.008-.053c-.072.351-.193.621-.364.811-.168.186-.403.279-.707.279-.126 0-.278-.021-.457-.063l.057-.781c.05.015.105.022.166.022.221 0 .375-.128.462-.386.087-.263.142-.672.166-1.227l.056-1.62h3.068zm2.023 0h.918v2.601l1.905-2.601h.867v3.992h-.913v-2.594l-1.906 2.593h-.873v-3.992zm5.711 0h.918v2.601l1.906-2.601h.866v3.992h-.913v-2.594l-1.905 2.594h-.872v-3.992zm1.843-.256c-.73 0-1.099-.291-1.107-.873h.633c.007.277.166.416.473.416.151 0 .267-.033.348-.103a.426.426 0 00.126-.313h.632c-.003.285-.097.502-.279.65s-.458.223-.828.223zm5.755 4.316c-.407 0-.776-.088-1.107-.263a2.056 2.056 0 01-.771-.726l-.005-.009a2.032 2.032 0 01-.279-1.035v-.033.002l-.001-.047c0-.755.423-1.411 1.045-1.744l.011-.005a2.3 2.3 0 011.112-.268c.346 0 .658.061.936.183.281.121.518.299.704.521l.002.003-.593.547a1.273 1.273 0 00-.987-.468h-.018.001c-.246 0-.467.055-.661.166-.193.106-.348.26-.453.446l-.003.006c-.101.185-.16.405-.16.639v.025-.001c0 .246.053.467.16.661.11.193.262.345.456.456.194.107.415.16.662.16a1.27 1.27 0 001.004-.474l.593.548c-.19.232-.426.408-.707.53a2.344 2.344 0 01-.941.183zm4.823-1.676h-.64v1.608h-.917v-3.992h.918v1.614h.662l1.048-1.614h.975l-1.305 1.928 1.346 2.065h-1.05l-1.037-1.608zm3.547-2.384h.918v2.601l1.905-2.601h.867v3.992h-.913v-2.594l-1.905 2.594h-.873v-3.992zm5.71 0h.918v2.601l1.906-2.601h.866v3.992h-.913v-2.594l-1.905 2.594h-.872v-3.992zm1.843-.256c-.73 0-1.099-.291-1.107-.873h.633c.008.277.166.416.473.416.152 0 .268-.033.348-.103a.426.426 0 00.126-.313h.632c-.003.285-.097.502-.279.65s-.458.223-.828.223zm-13.171-11.42v2.836H62.736V4.848h10.176v2.836h-6.543v2.187h5.764v2.743h-5.764v2.372h6.784zm15.123-10.14v12.975h-3.021l-5.727-6.914v6.914h-3.597V4.847h3.022l5.727 6.914V4.847h3.596z"/><path fill="var(--color1, #ff6b09)" d="M57.545 11.09c-.189-.424-.45-.842-.832-1.324-.964-1.214-1.258-3.915-1.261-3.942a.328.328 0 00-.224-.275l-.002-.001a.326.326 0 00-.346.095c-1.15 1.287-.666 3.273-.405 4.066.072.217.15.473.206.733.425 2.097-.396 3.046-.588 3.238-.188.052-.314.025-.431-.1-.405-.445-.54-1.899-.35-3.796a3.929 3.929 0 00-.029-1.079l.003.023c-.399-2.329-1.865-3.825-2.238-4.348C50.022 2.863 49.917.338 49.914.316a.327.327 0 00-.511-.255l.001-.001c-1.711 1.163-1.565 3.966-1.326 5.532.055.363.163.732.35 1.198.663 1.67-.13 3.825-.137 3.843-.007.02-.013.035-.017.055-.102.532-.271.85-.461.85a.26.26 0 01-.063-.011h.002c-.232-.047-.353-.294-.356-.508-.013-2.764-2.787-3.694-2.816-3.704a.328.328 0 00-.346.096.319.319 0 00-.046.358l-.001-.002c.033.068.138.366.066 1.419a12.077 12.077 0 01-.537 2.866l.023-.086a13.26 13.26 0 00-.549 4.31l-.001-.023c.508 5.519 8.445 6.486 13.155 3.377.516-.34.938-.728 1.248-1.156 1.738-2.398.716-5.655-.045-7.385zm-12.072 5.272l.001.018a.323.323 0 01-.309.323h-.022a.327.327 0 01-.325-.304v-.001c-.03-.474-.022-.97.013-1.507a.33.33 0 01.351-.301h-.001c.17.012.304.153.304.326l-.001.022v-.001a10.114 10.114 0 00-.011 1.455l-.001-.029zm.159-2.871a.325.325 0 01-.322.286h-.001c-.013 0-.026 0-.042-.003a.328.328 0 01-.285-.361v.002l.157-1.251a.33.33 0 01.368-.281h-.002c.18.022.307.184.284.363l-.157 1.247zm9.703-9.057a.325.325 0 01-.272-.372v.002c.021-.132.139-.806.459-1.144a.33.33 0 01.461-.015.322.322 0 01.015.459c-.136.143-.252.554-.29.8a.327.327 0 01-.374.27h.002zM43.423 6.047c-.063-.241-.217-.638-.367-.768a.32.32 0 01-.03-.457.327.327 0 01.462-.03c.352.306.536.966.569 1.095a.324.324 0 01-.233.393h-.002a.328.328 0 01-.397-.231l-.001-.002z"/></symbol><symbol id="icon-logo-tablet-desktop-mix" viewBox="0 0 91 32"><path fill="var(--color4, #111518)" d="M13.608 4.836v12.942H9.947v-5.047H4.955v5.047H1.294V4.836h3.661v4.863h4.992V4.836h3.661zm13.398 7.95c0 .025-.018.314-.055.869h-7.285c.148.518.432.918.851 1.202.432.271.967.407 1.609.407.481 0 .894-.068 1.239-.203a3.617 3.617 0 001.072-.666l1.849 1.923c-.974 1.084-2.397 1.627-4.271 1.627-1.171 0-2.2-.222-3.088-.666s-1.577-1.06-2.071-1.849c-.481-.789-.721-1.683-.721-2.681 0-.986.235-1.867.703-2.644a5.064 5.064 0 011.951-1.836l.027-.013c.838-.444 1.781-.666 2.829-.666.998 0 1.904.21 2.718.629a4.599 4.599 0 011.911 1.772l.012.021c.481.777.721 1.701.721 2.773zm-5.343-2.7c-.542 0-.998.154-1.368.462-.357.308-.585.727-.684 1.257h4.105c-.098-.53-.333-.949-.703-1.257-.357-.308-.807-.462-1.35-.462zm7.702-6.027h3.513v13.719h-3.513V4.059zm6.535 0h3.513v13.719H35.9V4.059z"/><path fill="var(--color1, #ff6b09)" d="M4.614 29.724H2.765l-.353.853h-.944l1.775-3.982h.91l1.781 3.982h-.967l-.353-.853zm-.29-.699L3.693 27.5l-.631 1.525h1.263zm7.303.802v1.576h-.853v-.825H7.963v.825H7.11l.006-1.576h.159c.24-.007.408-.182.507-.523s.159-.828.181-1.462l.046-1.246h3.06v3.231h.557zm-2.851-1.9a8.467 8.467 0 01-.126 1.245l.007-.051c-.061.319-.154.554-.279.705h1.781v-2.48H8.794l-.017.58zm6.378 2.719c-.405 0-.774-.087-1.104-.262a2.047 2.047 0 01-.769-.725l-.005-.009a2.034 2.034 0 01-.279-1.033v-.032.002a1.973 1.973 0 011.053-1.792 2.3 2.3 0 011.109-.267c.345 0 .656.06.933.182.281.121.516.296.705.523l-.592.546a1.272 1.272 0 00-1.001-.466h-.024c-.234 0-.453.061-.643.169l.007-.003a1.162 1.162 0 00-.452.444l-.003.006c-.107.193-.159.413-.159.66s.053.466.159.66c.11.193.262.345.455.455.193.107.413.159.66.159.398 0 .732-.157 1.001-.472l.592.546a1.855 1.855 0 01-.694.524l-.012.005a2.35 2.35 0 01-.939.182zm4.81-1.672h-.637v1.604h-.917v-3.982h.916v1.61h.66l1.047-1.61h.973l-1.303 1.923 1.343 2.059h-1.047l-1.035-1.604zm3.538-2.378h.916v2.594l1.9-2.594h.865v3.982h-.91V27.99l-1.9 2.588h-.87v-3.982zm5.696 0h.916v2.594l1.9-2.594h.865v3.982h-.91V27.99l-1.9 2.588h-.87v-3.982zm1.838-.256c-.728 0-1.096-.29-1.104-.87h.631c.007.277.165.415.472.415.151 0 .267-.034.347-.102.08-.072.121-.176.125-.313h.631c-.004.284-.097.501-.279.649s-.457.222-.825.222z"/><path fill="var(--color4, #111518)" d="M40.226 29.724h-1.849l-.353.853h-.944l1.775-3.982h.91l1.781 3.982h-.967l-.353-.853zm-.29-.699l-.631-1.525-.631 1.525h1.263zm6.815-2.429v3.982h-.922v-1.633H44.02v1.633h-.922v-3.982h.922v1.57h1.809v-1.57h.922zm4.826.75h-1.894l.006 3.231h-.916v-3.982h2.81l-.006.751zm4.647-.75v3.982h-.91v-3.231h-1.365l-.028.831a8.564 8.564 0 01-.137 1.377c-.073.348-.193.619-.364.808-.167.186-.403.279-.705.279-.125 0-.277-.021-.455-.063l.057-.779a.57.57 0 00.159.023h.007c.22 0 .373-.129.461-.387.087-.262.142-.669.165-1.223l.057-1.616h3.061zm2.018 0h.916v2.594l1.9-2.594h.865v3.982h-.91V27.99l-1.901 2.588h-.87v-3.982zm5.696 0h.916v2.594l1.901-2.594h.865v3.982h-.91V27.99l-1.9 2.588h-.871v-3.982zm1.838-.256c-.729 0-1.097-.29-1.104-.87h.632c.007.277.164.415.471.415.152 0 .268-.034.348-.102a.415.415 0 00.124-.313h.631c-.004.284-.097.501-.279.649s-.457.222-.825.222zm5.742 4.306h-.032c-.392 0-.761-.097-1.085-.268l.013.006a2.047 2.047 0 01-.769-.725l-.005-.009a2.034 2.034 0 01-.279-1.033v-.032.002c0-.395.092-.747.279-1.058.188-.312.45-.561.763-.729l.011-.005a2.263 2.263 0 011.076-.268h.035-.002c.345 0 .656.06.933.182.28.121.516.296.705.523l-.592.546a1.271 1.271 0 00-1.001-.466h-.024c-.234 0-.453.061-.643.169l.007-.003a1.162 1.162 0 00-.452.444l-.003.006c-.107.193-.159.413-.159.66s.053.466.159.66c.11.193.262.345.455.455.193.107.413.159.66.159.398 0 .732-.157 1.001-.472l.592.546a1.86 1.86 0 01-.693.524l-.012.005a2.35 2.35 0 01-.939.182zm4.811-1.672h-.637v1.604h-.916v-3.982h.916v1.61h.66l1.047-1.61h.973l-1.303 1.923 1.343 2.059h-1.047l-1.035-1.604zm3.537-2.378h.916v2.594l1.9-2.594h.865v3.982h-.91V27.99l-1.9 2.588h-.87v-3.982zm5.696 0h.916v2.594l1.9-2.594h.865v3.982h-.91V27.99l-1.9 2.588h-.87v-3.982zm1.838-.256c-.728 0-1.096-.29-1.104-.87h.631c.008.277.165.415.472.415.151 0 .267-.034.347-.102.08-.072.122-.176.125-.313h.631c-.004.284-.097.501-.279.649s-.457.222-.825.222zM74.263 14.949v2.829H63.872V4.836h10.15v2.829h-6.527v2.182h5.75v2.736h-5.75v2.367h6.767zM89.348 4.836v12.942h-3.014l-5.713-6.896v6.896h-3.587V4.836h3.014l5.713 6.896V4.836h3.587z"/><path fill="var(--color1, #ff6b09)" d="M58.695 11.062c-.19-.424-.45-.841-.832-1.323-.961-1.209-1.254-3.904-1.258-3.93a.326.326 0 00-.222-.274l-.002-.001a.329.329 0 00-.345.094c-1.147 1.283-.665 3.264-.404 4.056.071.217.149.472.206.731.423 2.091-.395 3.038-.587 3.228-.186.052-.313.026-.43-.1-.405-.443-.538-1.894-.348-3.785a3.818 3.818 0 00-.03-1.076l.003.023c-.399-2.324-1.861-3.815-2.233-4.338C51.189 2.854 51.085.336 51.082.314a.325.325 0 00-.509-.255l.001-.001c-1.708 1.161-1.562 3.957-1.323 5.518.055.363.163.73.348 1.196.661 1.664-.13 3.814-.137 3.833-.007.02-.014.036-.016.055-.101.53-.27.847-.46.847a.219.219 0 01-.063-.01h.002c-.231-.048-.352-.294-.356-.507-.013-2.757-2.78-3.685-2.809-3.695s-.064-.016-.1-.016a.326.326 0 00-.246.113.316.316 0 00-.044.357l-.001-.002c.033.068.137.365.065 1.415a12.078 12.078 0 01-.535 2.859l.023-.085c-.658 2.147-.555 4.18-.548 4.277.506 5.505 8.423 6.47 13.122 3.369.515-.34.935-.727 1.244-1.154 1.734-2.392.714-5.641-.045-7.367zM46.651 16.32v.017a.322.322 0 01-.306.322h-.023a.325.325 0 01-.324-.303v-.001a11.65 11.65 0 01.016-1.542l-.002.039a.33.33 0 01.349-.3h-.001c.17.012.304.153.304.325l-.001.022v-.001c-.036.511-.043.976-.013 1.422zm.159-2.864a.323.323 0 01-.321.284h-.002c-.014 0-.026 0-.043-.004a.327.327 0 01-.286-.324l.002-.036v.001l.156-1.248a.329.329 0 01.367-.28h-.002a.324.324 0 01.283.362l-.156 1.244zm9.679-9.034a.324.324 0 01-.272-.37v.002c.021-.132.139-.804.458-1.142a.327.327 0 01.461-.014.32.32 0 01.014.456c-.135.143-.25.553-.289.798a.327.327 0 01-.374.27h.002zm-11.881 1.61c-.063-.24-.218-.637-.367-.767a.32.32 0 01-.03-.456.326.326 0 01.46-.029c.351.306.535.963.567 1.092a.323.323 0 01-.232.393h-.002a.329.329 0 01-.397-.23l-.001-.002z"/></symbol><symbol id="icon-phone" viewBox="0 0 32 32"><path fill="var(--color1, #ff6b09)" d="M4.656.003a1.998 1.998 0 00-1.391.65l-.001.002-2.592 2.85c.003-.008-.01-.006-.083.096a.6.6 0 00-.09.172l-.001.004C-.558 7.142.151 10.843 1.874 14.363c1.725 3.52 4.477 6.886 7.634 9.651 3.158 2.763 6.722 4.926 10.12 5.998 3.397 1.072 6.691 1.059 9.133-.712a.662.662 0 00.073-.065c.064-.064.067-.072.056-.062l.01-.013 2.582-2.84c.322-.357.519-.831.519-1.352 0-.587-.25-1.116-.65-1.485l-6.128-5.572a2.015 2.015 0 00-1.353-.52c-.588 0-1.117.251-1.486.651l-.001.001-2.771 3.048c-2.25-.653-4.173-1.757-6.024-3.44-1.851-1.678-3.133-3.49-3.994-5.669l2.771-3.048a2.01 2.01 0 00.52-1.352 2.01 2.01 0 00-.653-1.486l-.001-.001L6.106.522A1.996 1.996 0 004.651.003h.005zm.059 1.248l.028-.001c.198 0 .379.077.513.203l6.125 5.571a.736.736 0 01.051 1.061l-3.064 3.366a.627.627 0 00-.123.644l-.001-.004c.93 2.536 2.43 4.618 4.493 6.494 2.064 1.877 4.275 3.174 6.89 3.859a.632.632 0 00.624-.185l3.066-3.366a.735.735 0 011.059-.049l6.128 5.571a.734.734 0 01.048 1.06l-2.56 2.816c-2.005 1.437-4.827 1.518-7.987.52-3.173-1.002-6.618-3.075-9.666-5.744-3.05-2.669-5.702-5.926-7.333-9.254-1.614-3.293-2.2-6.624-1.312-9.558l2.502-2.749a.745.745 0 01.518-.251h.002z"/></symbol><symbol id="icon-vk" viewBox="0 0 32 32"><path fill="var(--color5, #436eab)" d="M27.541 18.46c1.06 1.037 2.181 2.012 3.133 3.152.421.508.819 1.03 1.123 1.619.432.836.042 1.757-.709 1.807l-4.661-.002c-1.202.099-2.161-.384-2.969-1.206-.645-.658-1.243-1.358-1.863-2.037a4.456 4.456 0 00-.824-.736l-.015-.01c-.637-.413-1.189-.287-1.553.377-.37.676-.454 1.423-.491 2.176-.05 1.098-.382 1.387-1.485 1.436-2.356.112-4.593-.245-6.67-1.434-1.833-1.049-3.253-2.528-4.489-4.203C3.661 16.137 1.817 12.554.161 8.87c-.373-.831-.1-1.276.815-1.292a130.056 130.056 0 014.681-.001l-.117-.002c.619.009 1.027.363 1.266.947.822 2.023 1.829 3.948 3.093 5.732.336.475.679.949 1.168 1.284.541.37.953.247 1.206-.354.162-.382.233-.794.269-1.202.121-1.408.137-2.812-.075-4.213-.13-.876-.623-1.442-1.495-1.609-.446-.084-.38-.25-.164-.505.374-.437.727-.711 1.429-.711h5.269c.829.164 1.013.537 1.127 1.371l.004 5.853c-.01.323.161 1.282.743 1.495.465.153.772-.22 1.052-.515 1.262-1.339 2.162-2.922 2.965-4.56.357-.72.665-1.469.962-2.215.221-.555.565-.828 1.191-.816l5.07.004c.151 0 .303.002.448.028.855.145 1.089.512.826 1.347-.416 1.309-1.225 2.4-2.016 3.495-.846 1.17-1.749 2.301-2.589 3.477-.77 1.075-.709 1.617.247 2.55z"/></symbol><symbol id="icon-wave-curve" viewBox="0 0 15 32"><path fill="var(--color3, #fff)" d="M17.122 27.423c-7.989 3.869-12.49.288-15.058.559-.737.078-1.403.279-2.016.518-1.198.468-2.194 1.083-3.128 1.214V-.024h36.956v21.068c-1.042-.246-5.122 3.855-7.442 4.68-3.414.559-1.324-2.17-9.313 1.699z"/></symbol><symbol id="icon-arrow-right" viewBox="0 0 54 32"><path fill="var(--color1, #ff6b09)" d="M2 14a2 2 0 100 4v-4zm51.414 3.414c.362-.362.586-.862.586-1.414s-.224-1.052-.586-1.414L40.686 1.858a2 2 0 10-2.829 2.827l.001.001L49.172 16 37.858 27.314a2 2 0 002.829 2.827l-.001.001 12.728-12.728zM2 18h50v-4H2v4z"/></symbol><symbol id="icon-arrow-left" viewBox="0 0 54 32"><path fill="var(--color1, #ff6b09)" d="M52 14a2 2 0 110 4v-4zM.586 17.414C.224 17.052 0 16.552 0 16s.224-1.052.586-1.414L13.314 1.858a2 2 0 012.825 2.829l.001-.001L4.828 16l11.314 11.314a2 2 0 11-2.827 2.829l-.001-.001L.586 17.414zM52 18H2v-4h50v4z"/></symbol><symbol id="icon-advantages-guarantee-big" viewBox="0 0 28 32"><path fill="#ff6b09" d="M.542 13.742c0 .357-.542.357-.542 0C0 6.154 6.154 0 13.742 0c7.591 0 13.742 6.154 13.742 13.742 0 .357-.539.357-.539 0 0-5.129-8.428-5.132-8.428 0 0 .357-.555.357-.555 0 0-5.116-8.441-5.116-8.441 0 0 .357-.555.357-.555 0 0-5.106-8.425-5.142-8.425 0zm8.473-1.992c.146-2.952.61-5.599 1.285-7.62.539-1.606 1.22-2.826 1.992-3.51C6.498 1.253 1.807 5.645.759 11.342c1.995-2.878 6.602-2.647 8.256.409zm8.906-.133c-.149-2.839-.6-5.379-1.249-7.316-1.674-5.012-4.185-5.012-5.859 0-.649 1.937-1.097 4.477-1.249 7.316 1.8-3.059 6.556-3.059 8.357 0zm8.804-.276A13.205 13.205 0 0015.192.619c.775.684 1.453 1.904 1.992 3.51.675 2.021 1.139 4.668 1.285 7.62 1.664-3.072 6.284-3.254 8.256-.409zM11.938 20.03v-2.791c-.503.334-.899.85-.899 1.48 0 .613.402 1.019.899 1.311zm.542.866c-.964-.441-1.979-.957-1.979-2.177 0-1.259.957-1.888 1.979-2.359v4.536zM15.546 24.24v2.822c.509-.337.908-.856.908-1.486 0-.62-.409-1.038-.908-1.337zm-.539-.869c.967.448 1.989.98 1.989 2.206 0 1.262-.963 1.891-1.989 2.358v-4.564z"/><path fill="#ff6b09" d="M15.546 14.063c2.219.513 4.5 2.174 4.5 4.655 0 2.125-3.591 2.047-3.591 0 0-.633-.399-1.152-.908-1.486v3.971c2.054.672 4.506 1.875 4.506 4.373 0 2.485-2.281 4.143-4.506 4.652-.01 2.365-3.601 2.362-3.607-.003-1.265-.292-2.365-.882-3.16-1.664-.834-.824-1.327-1.859-1.327-2.985 0-2.093 3.588-2.093 3.588 0 0 .626.396 1.142.899 1.476v-3.968c-2.037-.659-4.503-1.898-4.503-4.373 0-2.485 2.281-4.143 4.503-4.652.01-2.365 3.601-2.362 3.607.003zm-3.066.007v.431c-2.112.419-4.506 1.771-4.506 4.211 0 2.346 2.628 3.397 4.506 3.977v5.243c-1.015-.464-1.979-1.09-1.979-2.355 0-1.382-2.511-1.382-2.511 0 0 .976.435 1.878 1.168 2.599.931.921 2.06 1.359 3.322 1.609v.435c0 1.664 2.527 1.664 2.527 0v-.431c2.118-.422 4.503-1.775 4.503-4.211 0-2.368-2.621-3.387-4.503-3.981v-5.239c1.019.464 1.989 1.09 1.989 2.362 0 1.346 2.508 1.401 2.508 0 0-2.436-2.381-3.792-4.496-4.214v-.435c0-1.664-2.527-1.664-2.527 0z"/></symbol><symbol id="icon-advantages-method-big" viewBox="0 0 33 32"><path fill="#ff6b09" d="M30.175-.128H14.429a1.861 1.861 0 00-1.859 1.859v6.518L.872 13.159a.38.38 0 00-.049.678l1.492.893v9.515A1.719 1.719 0 00.98 25.919v.917c0 .21.171.381.381.381h2.671c.21 0 .381-.171.381-.381v-.917a1.72 1.72 0 00-1.336-1.673v-9.06l1.18.706c-.036.272-.005-.474-.017 4.43 0 1.612 4.129 2.476 8.33 2.525v7.425a1.858 1.858 0 001.858 1.856h15.746a1.859 1.859 0 001.857-1.857c0 .051-.002-1.573 0-28.54a1.87 1.87 0 00-1.856-1.859zM3.652 25.918v.536H1.743v-.536a.955.955 0 111.909 0zm26.523 5.446H14.429a1.096 1.096 0 01-1.096-1.094v-2.574h17.935v2.575c0 .597-.497 1.092-1.092 1.092zm1.092-4.429H13.332v-4.086c2.051-.023 8.335-.475 8.335-2.527-.002-3.081.005-4.33-.01-4.436l3.421-2.049a.382.382 0 00-.049-.678l-11.698-4.91V5.067h17.935v21.868zm-18.316-9.143c-2.113 0-6.182.273-7.949 1.427.011-3.53-.122-3.3.312-3.6 1.098-.809 4.238-1.373 7.637-1.373 1.482 0 7.954.408 7.954 1.778v3.195c-1.784-1.165-5.832-1.428-7.954-1.428zm.382-16.061c0-.604.491-1.095 1.095-1.095h15.746c.604 0 1.093.498 1.093 1.095v2.574H13.332V1.731zm-.382 7.184l11.09 4.655-2.748 1.644c-1.461-1.449-6.294-1.73-8.342-1.73-2.051 0-6.884.282-8.342 1.73L1.86 13.569l11.091-4.655zM5.002 20.321c0-.617 2.73-1.767 7.949-1.767 5.222 0 7.954 1.151 7.954 1.767s-2.732 1.768-7.954 1.768c-5.219 0-7.949-1.151-7.949-1.768z"/><path fill="#ff6b09" d="M22.301 28.271a1.261 1.261 0 000 2.52 1.261 1.261 0 000-2.52zm0 1.759a.499.499 0 11.002-.998.499.499 0 01-.002.998zM23.754 2.09h-2.906v.762h2.906V2.09z"/></symbol><symbol id="icon-advantages-program-big" viewBox="0 0 27 32"><path fill="#ff6b09" d="M-.103 31.759h26.785c.133-3.055-.086-8.122-1.964-10.535l-.068-.087-4.104-2.06c.089-.301.133-.576.151-.778a1.43 1.43 0 00-.1-.678c-.677-1.62-2.11-2.472-2.898-2.836.24-.484.395-1.003.47-1.534.446-.126.805-.479.923-.951l.479-1.946a1.314 1.314 0 00-.151-1.002 1.292 1.292 0 00-.294-.334c1.351-3.068-.911-5.96-1.035-6.113C15.641.256 12.547.752 12.383.781c-4.466.935-6.19 4.358-5.217 8.372a1.317 1.317 0 00-.302 1.2l.481 1.948c.117.468.473.82.916.948a5.014 5.014 0 001.152 2.559v1.543c-6.409 3.282-2.348 1.188-7.484 3.786-.01.048-2.41 2.599-2.053 10.159l.022.462zm25.854-.97h-4.408v-1.852l2.916-6.675c1.461 2.424 1.515 7.053 1.493 8.526zm-6.016-12.573c-.17 1.954-1.242 1.364-1.903 2.869-.52-.572-.677-1.258-.537-1.993.253-1.349-.57-1.749-.367-3.166l.031-.032v-.005c.018-.02.18-.213.227-.274 1.744.76 2.584 2.174 2.55 2.6zm-9.356-1.536a4.963 4.963 0 005.575.074c.112 1.114.547 1.337.393 2.157a3.536 3.536 0 00-.054.45l-3.002 3.384-3.838-4.327.926-.484V16.68zm-1.207-4.14v-1.876-3.296c.467-.864 1.104-1.491 1.896-1.866 2.12 1.2 4.56 2.99 6.197 4.791-.002 2.294.006 2.301-.009 2.489l-.001.012c-.128 2.083-1.841 3.811-4.038 3.811-2.136 0-3.909-1.677-4.037-3.831a2.578 2.578 0 01-.008-.233zm-.598 6.346l4.716 5.317 3.166-3.569c.072.208.174.405.29.595l-3.456 4.322-5.154-6.446.438-.22zm9.656-7.127v-1.498l.36-.413c.02.758.102-.137-.36 1.911zM12.562 1.734c.192.012 2.765-.391 4.799 1.804.08.1 1.736 2.234 1.071 4.567-.228-1.038-.625-2.369-1.252-3.004l-.686.683c.619.627 1.026 2.537 1.181 3.527-2.84-2.972-6.504-4.853-6.555-4.885-.184.114-1.734.409-2.86 2.598l-.054.105v1.607l-.142.002c-.716-3.454.655-6.198 4.497-7.004zm-4.6 8.002l.244.987v1.038l-.405-1.639c-.059-.244.122-.337.161-.386zm-.71 9.814l6.038 7.551 4.085-5.109c.444.398.658.454 1.6.939l-.318-1.078c-.081-.274.239-.713.431-.914.43-.233.789-.566 1.057-.977l3.333 1.674-3.101 7.1v2.055H6.201v-2.055l-3.103-7.099 4.153-2.085zM2.32 22.265l2.916 6.673v1.852H.828c-.022-1.473.033-6.099 1.492-8.524z"/></symbol><symbol id="icon-guarantee-small" viewBox="0 0 28 32"><path fill="#ff6b09" d="M.542 13.742c0 .357-.542.357-.542 0C0 6.154 6.154 0 13.742 0c7.591 0 13.742 6.154 13.742 13.742 0 .357-.539.357-.539 0 0-5.129-8.428-5.132-8.428 0 0 .357-.555.357-.555 0 0-5.116-8.441-5.116-8.441 0 0 .357-.555.357-.555 0 0-5.106-8.425-5.142-8.425 0zm8.473-1.992c.146-2.952.61-5.599 1.285-7.62.539-1.606 1.22-2.826 1.992-3.51C6.498 1.253 1.807 5.645.759 11.342c1.995-2.878 6.602-2.647 8.256.409zm8.906-.133c-.149-2.839-.6-5.379-1.249-7.316-1.674-5.012-4.185-5.012-5.859 0-.649 1.937-1.097 4.477-1.249 7.316 1.8-3.059 6.556-3.059 8.357 0zm8.804-.276A13.205 13.205 0 0015.192.619c.775.684 1.453 1.904 1.992 3.51.675 2.021 1.139 4.668 1.285 7.62 1.664-3.072 6.284-3.254 8.256-.409zM11.938 20.03v-2.791c-.503.334-.899.85-.899 1.48 0 .613.402 1.019.899 1.311zm.542.866c-.964-.441-1.979-.957-1.979-2.177 0-1.259.957-1.888 1.979-2.359v4.536zM15.546 24.24v2.822c.509-.337.908-.856.908-1.486 0-.62-.409-1.038-.908-1.337zm-.539-.869c.967.448 1.989.98 1.989 2.206 0 1.262-.963 1.891-1.989 2.358v-4.564z"/><path fill="#ff6b09" d="M15.546 14.063c2.219.513 4.5 2.174 4.5 4.655 0 2.125-3.591 2.047-3.591 0 0-.633-.399-1.152-.908-1.486v3.971c2.054.672 4.506 1.875 4.506 4.373 0 2.485-2.281 4.143-4.506 4.652-.01 2.365-3.601 2.362-3.607-.003-1.265-.292-2.365-.882-3.16-1.664-.834-.824-1.327-1.859-1.327-2.985 0-2.093 3.588-2.093 3.588 0 0 .626.396 1.142.899 1.476v-3.968c-2.037-.659-4.503-1.898-4.503-4.373 0-2.485 2.281-4.143 4.503-4.652.01-2.365 3.601-2.362 3.607.003zm-3.066.007v.431c-2.112.419-4.506 1.771-4.506 4.211 0 2.346 2.628 3.397 4.506 3.977v5.243c-1.015-.464-1.979-1.09-1.979-2.355 0-1.382-2.511-1.382-2.511 0 0 .976.435 1.878 1.168 2.599.931.921 2.06 1.359 3.322 1.609v.435c0 1.664 2.527 1.664 2.527 0v-.431c2.118-.422 4.503-1.775 4.503-4.211 0-2.368-2.621-3.387-4.503-3.981v-5.239c1.019.464 1.989 1.09 1.989 2.362 0 1.346 2.508 1.401 2.508 0 0-2.436-2.381-3.792-4.496-4.214v-.435c0-1.664-2.527-1.664-2.527 0z"/></symbol><symbol id="icon-method-small" viewBox="0 0 33 32"><path fill="#ff6b09" d="M30.175-.128H14.429a1.861 1.861 0 00-1.859 1.859v6.518L.872 13.159a.38.38 0 00-.049.678l1.492.893v9.515A1.719 1.719 0 00.98 25.919v.917c0 .21.171.381.381.381h2.671c.21 0 .381-.171.381-.381v-.917a1.72 1.72 0 00-1.336-1.673v-9.06l1.18.706c-.036.272-.005-.474-.017 4.43 0 1.612 4.129 2.476 8.33 2.525v7.425a1.858 1.858 0 001.858 1.856h15.746a1.859 1.859 0 001.857-1.857c0 .051-.002-1.573 0-28.54a1.87 1.87 0 00-1.856-1.859zM3.652 25.918v.536H1.743v-.536a.955.955 0 111.909 0zm26.523 5.446H14.429a1.096 1.096 0 01-1.096-1.094v-2.574h17.935v2.575c0 .597-.497 1.092-1.092 1.092zm1.092-4.429H13.332v-4.086c2.051-.023 8.335-.475 8.335-2.527-.002-3.081.005-4.33-.01-4.436l3.421-2.049a.382.382 0 00-.049-.678l-11.698-4.91V5.067h17.935v21.868zm-18.316-9.143c-2.113 0-6.182.273-7.949 1.427.011-3.53-.122-3.3.312-3.6 1.098-.809 4.238-1.373 7.637-1.373 1.482 0 7.954.408 7.954 1.778v3.195c-1.784-1.165-5.832-1.428-7.954-1.428zm.382-16.061c0-.604.491-1.095 1.095-1.095h15.746c.604 0 1.093.498 1.093 1.095v2.574H13.332V1.731zm-.382 7.184l11.09 4.655-2.748 1.644c-1.461-1.449-6.294-1.73-8.342-1.73-2.051 0-6.884.282-8.342 1.73L1.86 13.569l11.091-4.655zM5.002 20.321c0-.617 2.73-1.767 7.949-1.767 5.222 0 7.954 1.151 7.954 1.767s-2.732 1.768-7.954 1.768c-5.219 0-7.949-1.151-7.949-1.768z"/><path fill="#ff6b09" d="M22.301 28.271a1.261 1.261 0 000 2.52 1.261 1.261 0 000-2.52zm0 1.759a.499.499 0 11.002-.998.499.499 0 01-.002.998zM23.754 2.09h-2.906v.762h2.906V2.09z"/></symbol><symbol id="icon-program-small" viewBox="0 0 27 32"><path fill="#ff6b09" d="M-.103 31.759h26.785c.133-3.055-.086-8.122-1.964-10.535l-.068-.087-4.104-2.06c.089-.301.133-.576.151-.778a1.43 1.43 0 00-.1-.678c-.677-1.62-2.11-2.472-2.898-2.836.24-.484.395-1.003.47-1.534.446-.126.805-.479.923-.951l.479-1.946a1.314 1.314 0 00-.151-1.002 1.292 1.292 0 00-.294-.334c1.351-3.068-.911-5.96-1.035-6.113C15.641.256 12.547.752 12.383.781c-4.466.935-6.19 4.358-5.217 8.372a1.317 1.317 0 00-.302 1.2l.481 1.948c.117.468.473.82.916.948a5.014 5.014 0 001.152 2.559v1.543c-6.409 3.282-2.348 1.188-7.484 3.786-.01.048-2.41 2.599-2.053 10.159l.022.462zm25.854-.97h-4.408v-1.852l2.916-6.675c1.461 2.424 1.515 7.053 1.493 8.526zm-6.016-12.573c-.17 1.954-1.242 1.364-1.903 2.869-.52-.572-.677-1.258-.537-1.993.253-1.349-.57-1.749-.367-3.166l.031-.032v-.005c.018-.02.18-.213.227-.274 1.744.76 2.584 2.174 2.55 2.6zm-9.356-1.536a4.963 4.963 0 005.575.074c.112 1.114.547 1.337.393 2.157a3.536 3.536 0 00-.054.45l-3.002 3.384-3.838-4.327.926-.484V16.68zm-1.207-4.14v-1.876-3.296c.467-.864 1.104-1.491 1.896-1.866 2.12 1.2 4.56 2.99 6.197 4.791-.002 2.294.006 2.301-.009 2.489l-.001.012c-.128 2.083-1.841 3.811-4.038 3.811-2.136 0-3.909-1.677-4.037-3.831a2.578 2.578 0 01-.008-.233zm-.598 6.346l4.716 5.317 3.166-3.569c.072.208.174.405.29.595l-3.456 4.322-5.154-6.446.438-.22zm9.656-7.127v-1.498l.36-.413c.02.758.102-.137-.36 1.911zM12.562 1.734c.192.012 2.765-.391 4.799 1.804.08.1 1.736 2.234 1.071 4.567-.228-1.038-.625-2.369-1.252-3.004l-.686.683c.619.627 1.026 2.537 1.181 3.527-2.84-2.972-6.504-4.853-6.555-4.885-.184.114-1.734.409-2.86 2.598l-.054.105v1.607l-.142.002c-.716-3.454.655-6.198 4.497-7.004zm-4.6 8.002l.244.987v1.038l-.405-1.639c-.059-.244.122-.337.161-.386zm-.71 9.814l6.038 7.551 4.085-5.109c.444.398.658.454 1.6.939l-.318-1.078c-.081-.274.239-.713.431-.914.43-.233.789-.566 1.057-.977l3.333 1.674-3.101 7.1v2.055H6.201v-2.055l-3.103-7.099 4.153-2.085zM2.32 22.265l2.916 6.673v1.852H.828c-.022-1.473.033-6.099 1.492-8.524z"/></symbol></defs></svg>
