<svg aria-hidden="true" style="position:absolute;width:0;height:0" xmlns="http://www.w3.org/2000/svg" overflow="hidden"><defs><symbol id="icon-advantages-guarantee" viewBox="0 0 31 32"><path fill="var(--color1, #ff6b09)" d="M6.947 14.566c0 .227-.344.227-.344 0a8.726 8.726 0 0117.45 0c0 .227-.342.227-.342 0 0-3.256-5.351-3.258-5.351 0 0 .227-.352.227-.352 0 0-3.248-5.36-3.248-5.36 0 0 .227-.352.227-.352 0 0-3.242-5.349-3.265-5.349 0zm5.38-1.264c.093-1.874.387-3.555.816-4.838.342-1.02.774-1.794 1.265-2.229a8.387 8.387 0 00-7.322 6.808c1.267-1.827 4.192-1.681 5.242.26zm5.654-.085c-.095-1.802-.381-3.415-.793-4.645-1.063-3.182-2.657-3.182-3.72 0-.412 1.23-.696 2.842-.793 4.645 1.143-1.942 4.163-1.942 5.306 0zm5.59-.175a8.384 8.384 0 00-7.322-6.808c.492.435.923 1.209 1.265 2.229.428 1.283.723 2.964.816 4.838 1.057-1.951 3.99-2.066 5.242-.26zM14.183 18.559v-1.772c-.319.212-.571.54-.571.939 0 .389.255.647.571.832zm.344.55c-.612-.28-1.256-.608-1.256-1.382 0-.799.608-1.199 1.256-1.498v2.88zM16.474 21.232v1.792c.323-.214.577-.544.577-.943 0-.393-.26-.659-.577-.849zm-.342-.552c.614.284 1.263.622 1.263 1.401 0 .801-.612 1.201-1.263 1.497V20.68z"/><path fill="var(--color1, #ff6b09)" d="M16.474 14.77c1.409.325 2.857 1.38 2.857 2.956 0 1.349-2.28 1.3-2.28 0 0-.402-.253-.731-.577-.943v2.521c1.304.426 2.861 1.191 2.861 2.777 0 1.578-1.448 2.63-2.861 2.954-.006 1.502-2.286 1.5-2.29-.002-.803-.185-1.502-.56-2.006-1.057-.529-.523-.842-1.18-.842-1.895 0-1.329 2.278-1.329 2.278 0 0 .398.251.725.571.937v-2.519c-1.294-.418-2.859-1.205-2.859-2.777 0-1.578 1.448-2.63 2.859-2.954.006-1.502 2.286-1.5 2.29.002zm-1.947.004v.274c-1.341.266-2.861 1.125-2.861 2.674 0 1.489 1.668 2.157 2.861 2.525v3.329c-.645-.295-1.256-.692-1.256-1.495 0-.878-1.594-.878-1.594 0 0 .62.276 1.193.742 1.65.591.585 1.308.863 2.109 1.022v.276c0 1.057 1.605 1.057 1.605 0v-.274c1.345-.268 2.859-1.127 2.859-2.674 0-1.504-1.664-2.15-2.859-2.527v-3.327c.647.295 1.263.692 1.263 1.5 0 .855 1.592.89 1.592 0 0-1.547-1.512-2.408-2.855-2.676v-.276c0-1.057-1.605-1.057-1.605 0z"/><path fill="none" stroke="var(--color1, #ff6b09)" stroke-width="1.016" d="M30.387 4.945V.762H.508v30.476h29.879v-4.183"/></symbol><symbol id="icon-advantages-method" viewBox="0 0 31 32"><path fill="var(--color1, #ff6b09)" d="M24.717 5.25H14.47c-.667 0-1.21.543-1.21 1.21v4.242l-7.613 3.195a.248.248 0 00-.031.441l.971.581v6.192a1.118 1.118 0 00-.869 1.089v.597c0 .137.111.248.248.248h1.739a.248.248 0 00.248-.248V22.2a1.12 1.12 0 00-.87-1.089v-5.896l.768.459c-.024.177-.003-.309-.011 2.883 0 1.049 2.687 1.611 5.421 1.643v4.832a1.207 1.207 0 001.209 1.208h10.247a1.21 1.21 0 001.209-1.209V6.458c0-.658-.544-1.21-1.208-1.21zM7.456 22.201v.349H6.213v-.349a.622.622 0 111.243 0zm17.261 3.544H14.47a.709.709 0 01-.714-.711v-1.675h11.672v1.676a.718.718 0 01-.711.711zm.711-2.883H13.756v-2.659c1.335-.015 5.424-.309 5.424-1.645-.001-2.005.004-2.818-.006-2.887l2.226-1.334a.247.247 0 00-.031-.441l-7.613-3.195V8.63h11.672v14.232zm-11.92-5.95c-1.375 0-4.023.178-5.173.929.007-2.297-.08-2.148.203-2.343.715-.526 2.758-.894 4.97-.894.965 0 5.176.265 5.176 1.157v2.08c-1.161-.758-3.795-.929-5.176-.929zm.248-10.452c0-.393.32-.713.713-.713h10.247c.393 0 .712.324.712.713v1.675H13.756V6.46zm-.248 4.675l7.217 3.029-1.788 1.07c-.951-.943-4.096-1.126-5.429-1.126-1.335 0-4.48.183-5.429 1.126l-1.789-1.07 7.218-3.029zm-5.173 7.423c0-.401 1.777-1.15 5.173-1.15 3.399 0 5.176.749 5.176 1.15s-1.778 1.15-5.176 1.15c-3.396 0-5.173-.749-5.173-1.15z"/><path fill="var(--color1, #ff6b09)" d="M19.593 23.732a.821.821 0 000 1.64.821.821 0 000-1.64zm0 1.145a.325.325 0 11.001-.65.325.325 0 01-.001.65zM20.538 6.693h-1.891v.496h1.891v-.496z"/><path fill="none" stroke="var(--color1, #ff6b09)" stroke-width="1.016" d="M30.387 4.945V.762H.508v30.476h29.879v-4.183"/></symbol><symbol id="icon-advantages-program" viewBox="0 0 31 32"><path fill="var(--color1, #ff6b09)" d="M7.046 26.006h17.006c.084-1.939-.055-5.157-1.247-6.689l-.043-.055-2.606-1.308c.057-.191.084-.366.096-.494a.904.904 0 00-.063-.43c-.43-1.029-1.339-1.57-1.84-1.8.152-.307.251-.637.298-.974a.837.837 0 00.586-.604l.304-1.236a.834.834 0 00-.283-.848c.858-1.948-.579-3.784-.657-3.881-1.555-1.682-3.52-1.367-3.624-1.349-2.836.594-3.93 2.767-3.312 5.316a.836.836 0 00-.192.762l.306 1.237c.074.297.3.521.581.602.087.617.348 1.175.732 1.625v.979c-4.069 2.084-1.491.754-4.752 2.404-.006.031-1.53 1.65-1.304 6.45l.014.293zm16.415-.616h-2.799v-1.176l1.851-4.238c.927 1.539.962 4.478.948 5.413zm-3.82-7.983c-.108 1.241-.788.866-1.208 1.822-.33-.363-.43-.799-.341-1.265.16-.856-.362-1.11-.233-2.01l.02-.021v-.003a6.52 6.52 0 00.144-.174c1.107.483 1.64 1.381 1.619 1.651zm-5.94-.975a3.15 3.15 0 003.539.047c.071.707.347.849.249 1.369a2.402 2.402 0 00-.034.285l-1.906 2.148-2.437-2.747.588-.307v-.796zm-.767-2.629v-1.191-2.093c.297-.549.701-.947 1.204-1.185 1.346.762 2.896 1.898 3.935 3.042-.001 1.457.004 1.461-.006 1.58l-.001.008a2.571 2.571 0 01-2.564 2.419 2.577 2.577 0 01-2.568-2.581zm-.379 4.03l2.994 3.376 2.01-2.266c.046.132.11.257.184.378l-2.194 2.744-3.272-4.093.278-.14zm6.131-4.526v-.951l.229-.262c.013.482.065-.087-.229 1.213zm-3.599-6.365c.122.008 1.756-.249 3.047 1.146.051.064 1.102 1.418.68 2.9-.145-.659-.397-1.504-.795-1.907l-.435.434c.393.398.651 1.611.75 2.24-1.803-1.887-4.13-3.082-4.162-3.102-.117.073-1.101.26-1.816 1.649l-.034.066v1.021l-.09.001c-.454-2.193.416-3.936 2.855-4.447zm-2.92 5.081l.155.627v.659l-.257-1.041c-.038-.155.077-.214.102-.245zm-.451 6.231l3.833 4.794 2.594-3.244c.282.253.418.288 1.016.596l-.202-.684c-.051-.174.151-.452.274-.58.273-.148.501-.36.671-.621l2.116 1.063-1.969 4.508v1.305h-9v-1.305l-1.97-4.507 2.637-1.324zm-3.132 1.724l1.851 4.237v1.176H7.636c-.014-.935.021-3.872.947-5.412z"/><path fill="none" stroke="var(--color1, #ff6b09)" stroke-width="1.016" d="M30.387 4.945V.762H.508v30.476h29.879v-4.183"/></symbol><symbol id="icon-burger-menu" viewBox="0 0 32 32"><path d="M6.4 11.733V9.6h19.2v2.133H6.4zm0 5.334h19.2v-2.133H6.4v2.133zm0 5.333h19.2v-2.133H6.4V22.4z"/></symbol><symbol id="icon-check-list-marker" viewBox="0 0 41 32"><path fill="var(--color1, #ff6b09)" d="M34.457 1.514a29.389 29.389 0 00-4.265 2.379c-2.731 1.797-5.228 3.936-7.57 6.218-2.341 2.287-4.52 4.735-6.581 7.28-.515.636-2.823 3.47-2.823 3.47L3.622 6.481-.001 16.523 12.976 32c1.26-2.551 2.473-5.07 3.662-7.258.296-.556.605-1.08.901-1.612 0 0 1.523-2.677 1.923-3.352 1.602-2.697 3.333-5.325 5.239-7.821 1.908-2.491 3.983-4.87 6.335-6.961a28.328 28.328 0 013.751-2.872c1.332-.848 2.747-1.591 4.261-2.125-1.575.31-3.111.848-4.592 1.514z"/></symbol><symbol id="icon-circle-list-marker" viewBox="0 0 32 32"><path fill="var(--color1, #ff6b09)" d="M16 32C7.163 32 0 24.837 0 16S7.163 0 16 0s16 7.163 16 16-7.163 16-16 16z"/></symbol><symbol id="icon-close-menu" viewBox="0 0 32 32"><path d="M23.733 10.304L22.229 8.8l-5.963 5.963L10.303 8.8l-1.504 1.504 5.963 5.963-5.963 5.963 1.504 1.504 5.963-5.963 5.963 5.963 1.504-1.504-5.963-5.963 5.963-5.963z"/></symbol><symbol id="icon-fire-background" viewBox="0 0 28 32"><path d="M28.731 21.831c-.373-.836-.887-1.659-1.639-2.609-1.896-2.386-2.474-7.706-2.481-7.757a.642.642 0 00-.443-.542.65.65 0 00-.681.185c-2.262 2.533-1.311 6.443-.797 8.006.141.427.296.931.405 1.442.835 4.127-.778 5.996-1.157 6.373-.366.102-.617.051-.848-.198-.797-.874-1.06-3.738-.688-7.47a7.66 7.66 0 00-.051-2.08c-.786-4.587-3.668-7.529-4.402-8.561-2.018-2.985-2.224-7.955-2.23-7.999a.641.641 0 00-1.002-.504c-3.368 2.29-3.078 7.808-2.609 10.889.109.714.321 1.442.688 2.36 1.305 3.285-.257 7.527-.27 7.566s-.026.07-.032.108c-.199 1.046-.533 1.671-.906 1.671a.428.428 0 01-.122-.019c-.456-.096-.694-.581-.7-1.002-.026-5.441-5.482-7.272-5.54-7.291a.64.64 0 00-.681.191.629.629 0 00-.09.702c.064.134.27.721.129 2.794a23.848 23.848 0 01-1.009 5.473C.277 27.795.482 31.807.495 31.998c.998 10.864 16.609 12.768 25.873 6.647 1.015-.67 1.844-1.435 2.455-2.277 3.419-4.721 1.407-11.131-.09-14.538zM4.985 32.21a.637.637 0 01-.604.67h-.039a.64.64 0 01-.643-.6 22.933 22.933 0 01.026-2.966.645.645 0 011.286.09 20.55 20.55 0 00-.026 2.807zm.315-5.652a.638.638 0 01-.636.561c-.026 0-.051 0-.084-.006a.643.643 0 01-.559-.708l.308-2.462a.65.65 0 01.72-.555.64.64 0 01.559.714L5.3 26.558zM24.384 8.727A.638.638 0 0123.847 8c.04-.259.272-1.586.902-2.253.243-.257.649-.271.908-.029s.272.644.029.902c-.267.282-.494 1.091-.57 1.575a.643.643 0 01-.733.533zM.955 11.905c-.123-.474-.429-1.257-.722-1.512-.267-.232-.294-.635-.06-.9s.639-.292.907-.059c.693.603 1.054 1.901 1.12 2.154a.644.644 0 01-1.246.317z"/></symbol><symbol id="icon-fire-list-marker" viewBox="0 0 24 32"><path fill="var(--color1, #ff6b09)" d="M21.908 16.593c-.284-.635-.675-1.261-1.247-1.983-1.442-1.813-1.882-5.857-1.887-5.896a.488.488 0 00-.337-.412.495.495 0 00-.518.141c-1.721 1.925-.997 4.897-.606 6.085.108.325.225.708.308 1.096.636 3.137-.592 4.558-.88 4.844-.279.078-.469.039-.645-.15-.606-.664-.807-2.841-.523-5.678a5.797 5.797 0 00-.039-1.581c-.598-3.486-2.791-5.722-3.349-6.507C10.65 4.283 10.493.506 10.489.472a.487.487 0 00-.763-.383C7.164 1.83 7.384 6.024 7.741 8.365c.083.543.244 1.096.523 1.794.992 2.497-.196 5.721-.205 5.75s-.02.053-.024.082c-.152.795-.406 1.27-.689 1.27a.327.327 0 01-.093-.015c-.347-.073-.528-.441-.533-.761-.02-4.136-4.17-5.527-4.214-5.542a.487.487 0 00-.586.678c.049.102.205.548.098 2.124a18.09 18.09 0 01-.768 4.16C.262 21.124.419 24.174.429 24.32c.759 8.257 12.635 9.704 19.683 5.052.772-.509 1.403-1.091 1.868-1.731 2.601-3.588 1.071-8.46-.068-11.05zM3.844 24.481a.484.484 0 01-.46.509h-.029a.487.487 0 01-.489-.456c-.044-.708-.034-1.45.02-2.255a.49.49 0 01.978.068 15.622 15.622 0 00-.02 2.133zm.239-4.296a.485.485 0 01-.484.427c-.02 0-.039 0-.064-.005a.489.489 0 01-.425-.538l.235-1.872a.494.494 0 01.548-.422c.269.034.46.276.425.543l-.235 1.867zM18.601 6.633a.484.484 0 01-.408-.553c.031-.197.207-1.205.687-1.713.184-.196.493-.206.691-.022s.207.49.022.685c-.203.215-.376.829-.433 1.197a.489.489 0 01-.558.405zM.778 9.048C.684 8.687.452 8.093.229 7.899c-.203-.177-.223-.483-.045-.684s.486-.222.69-.045c.527.458.802 1.445.852 1.638a.49.49 0 01-.947.241z"/></symbol><symbol id="icon-how-audiobook" viewBox="0 0 37 32"><path fill="var(--color1, #ff6b09)" d="M2.381 29.453h12.23a3.738 3.738 0 003.38 2.116h.772c1.465 0 2.761-.83 3.381-2.116h12.237a2.289 2.289 0 002.286-2.286V5.262a2.289 2.289 0 00-2.286-2.286h-1.234V1.955c0-.84-.684-1.524-1.524-1.524H5.132c-.84 0-1.524.683-1.524 1.524v1.021H2.381A2.289 2.289 0 00.095 5.262v21.905a2.289 2.289 0 002.286 2.286zm29.24-4.701H19.143V7.047c2.884.377 5.121 2.845 5.121 5.831v.687l-.181-.04a.759.759 0 00-.908.58l-1.213 5.519c-.09.41.17.816.58.907l2.621.578a1.946 1.946 0 002.319-1.492l.702-3.192a1.954 1.954 0 00-1.484-2.324l-.912-.201v-1.023c0-3.827-2.917-6.986-6.644-7.37V1.956h12.48l-.002 22.796zm-7.122-9.575l1.871.412a.422.422 0 01.325.508l-.702 3.191a.45.45 0 01-.507.331l-1.874-.413.886-4.03zM5.132 1.956h12.487v3.55c-3.731.381-6.652 3.541-6.652 7.371v1.022l-.914.202a1.935 1.935 0 00-1.222.854 1.928 1.928 0 00-.26 1.468l.7 3.188a1.96 1.96 0 002.325 1.495l2.61-.577a.762.762 0 00.58-.907l-1.213-5.519c-.043-.198-.164-.37-.334-.478s-.378-.144-.574-.102l-.174.038v-.686c0-2.988 2.24-5.458 5.128-5.832v17.706H5.132V1.953zm7.117 13.221l.887 4.029-1.863.411a.433.433 0 01-.512-.328l-.702-3.196a.42.42 0 01.323-.506l1.867-.412zM1.619 5.262c0-.42.342-.762.762-.762h1.227v20.252c0 .84.684 1.524 1.524 1.524h26.491c.84 0 1.524-.683 1.524-1.524V4.5h1.234c.42 0 .762.342.762.762v21.905c0 .42-.342.762-.762.762H21.627a.76.76 0 00-.728.538 2.22 2.22 0 01-2.135 1.577h-.772a2.229 2.229 0 01-2.138-1.586.762.762 0 00-.725-.529H2.382a.763.763 0 01-.762-.762V5.262z"/></symbol><symbol id="icon-how-author" viewBox="0 0 27 32"><path fill="var(--color1, #ff6b09)" d="M-.105 31.754H27.25c.135-3.12-.088-8.295-2.006-10.759l-.069-.088-4.191-2.104c.091-.307.136-.588.154-.795a1.449 1.449 0 00-.102-.692c-.691-1.655-2.155-2.525-2.959-2.896a5.158 5.158 0 00.48-1.567c.456-.128.822-.489.942-.971l.489-1.987a1.329 1.329 0 00-.454-1.364c1.379-3.133-.931-6.087-1.057-6.243C15.975-.417 12.815.089 12.647.119c-4.561.955-6.321 4.451-5.328 8.55-.294.326-.418.78-.309 1.226l.492 1.99c.119.478.483.838.935.968.14.993.56 1.89 1.177 2.614v1.576c-6.545 3.352-2.398 1.213-7.643 3.867-.01.049-2.461 2.654-2.097 10.375l.022.472zm26.404-.991h-4.502v-1.891l2.978-6.817c1.492 2.476 1.547 7.203 1.524 8.708zm-6.144-12.84c-.174 1.996-1.268 1.393-1.944 2.93-.531-.584-.691-1.285-.548-2.035.258-1.377-.583-1.786-.375-3.233l.032-.033v-.005c.018-.02.184-.217.232-.28 1.781.776 2.639 2.221 2.604 2.656zm-9.556-1.569a5.075 5.075 0 005.694.076c.114 1.138.559 1.365.401 2.203a3.5 3.5 0 00-.055.459l-3.066 3.456-3.919-4.419.946-.494v-1.281zm-1.232-4.229v-1.916-3.366c.477-.883 1.128-1.522 1.936-1.906 2.165 1.225 4.657 3.053 6.329 4.893-.002 2.343.007 2.35-.009 2.542l-.001.012c-.13 2.128-1.88 3.892-4.124 3.892-2.181 0-3.992-1.713-4.123-3.913a2.69 2.69 0 01-.008-.238zm-.611 6.482l4.816 5.43 3.234-3.644c.074.213.178.414.296.608l-3.53 4.414-5.264-6.583.447-.224zm9.862-7.278v-1.53l.368-.421c.02.775.104-.14-.368 1.951zM12.829 1.09c.196.012 2.824-.4 4.901 1.843.082.103 1.773 2.281 1.093 4.665-.233-1.061-.638-2.42-1.278-3.068l-.7.697c.632.641 1.048 2.591 1.206 3.602-2.901-3.035-6.643-4.957-6.694-4.989-.188.117-1.771.418-2.921 2.653l-.055.107v1.642l-.145.002c-.731-3.528.669-6.33 4.593-7.153zM8.132 9.262l.249 1.008v1.06l-.414-1.674c-.061-.25.124-.344.165-.394zm-.725 10.023l6.166 7.712 4.172-5.218c.454.406.672.464 1.634.959l-.325-1.101c-.082-.279.244-.728.441-.934.44-.238.806-.578 1.08-.998l3.404 1.709-3.167 7.251v2.099H6.335v-2.099l-3.169-7.25 4.242-2.129zM2.37 22.058l2.978 6.815v1.891H.846c-.023-1.504.033-6.229 1.524-8.706z"/></symbol><symbol id="icon-how-book" viewBox="0 0 44 32"><path fill="var(--color1, #ff6b09)" d="M19.6 4.608H5.96v1.021H19.6V4.608zM19.6 8.416H8.003v1.021H19.6V8.416zM19.6 12.224H5.96v1.021H19.6v-1.021zM19.6 16.032H8.003v1.021H19.6v-1.021zM19.6 19.84H5.96v1.021H19.6V19.84zM19.6 23.648H8.003v1.021H19.6v-1.021zM38.323 4.608h-13.64v1.021h13.64V4.608zM36.281 8.416H24.684v1.021h11.597V8.416zM38.323 12.224h-13.64v1.021h13.64v-1.021zM36.281 16.032H24.684v1.021h11.597v-1.021zM38.323 19.84h-13.64v1.021h13.64V19.84zM36.281 23.648H24.684v1.021h11.597v-1.021z"/><path fill="var(--color1, #ff6b09)" d="M43.248 3.445h-1.872V.633a.511.511 0 00-.511-.511H25.6c-1.49 0-2.781.805-3.458 2.011A3.95 3.95 0 0018.683.122H3.418a.511.511 0 00-.511.511v2.812H1.035a.511.511 0 00-.511.511v27.411c0 .282.229.511.511.511h42.213a.511.511 0 00.511-.511V3.956a.511.511 0 00-.511-.511zM25.601 1.144h14.754v27.35H24.512a3.01 3.01 0 00-1.859.68V4.085a2.932 2.932 0 012.948-2.942zm-21.672 0h14.754a2.924 2.924 0 012.942 2.829c.001.022.003.091.006.112v25.087a2.993 2.993 0 00-1.852-.678H3.929V1.144zM1.546 4.467h1.362v24.538c0 .282.229.511.511.511H19.78c.778 0 1.531.511 1.771 1.341H1.546V4.467zm41.192 26.389H22.734a1.845 1.845 0 011.778-1.341h16.354a.511.511 0 00.511-.511V4.466h1.362v26.39z"/></symbol><symbol id="icon-how-online" viewBox="0 0 33 32"><path fill="var(--color1, #ff6b09)" d="M30.175-.128H14.429a1.861 1.861 0 00-1.859 1.859v6.518L.872 13.159a.38.38 0 00-.049.678l1.492.893v9.515A1.719 1.719 0 00.98 25.919v.917c0 .21.171.381.381.381h2.671c.21 0 .381-.171.381-.381v-.917a1.72 1.72 0 00-1.336-1.673v-9.06l1.18.706c-.036.272-.005-.474-.017 4.43 0 1.612 4.129 2.476 8.33 2.525v7.425a1.858 1.858 0 001.858 1.856h15.746a1.859 1.859 0 001.857-1.857c0 .051-.002-1.573 0-28.54a1.87 1.87 0 00-1.856-1.859zM3.651 25.918v.536H1.742v-.536a.955.955 0 111.909 0zm26.524 5.446H14.429a1.096 1.096 0 01-1.096-1.094v-2.574h17.935v2.575c0 .597-.497 1.092-1.092 1.092zm1.092-4.429H13.332v-4.086c2.051-.023 8.335-.475 8.335-2.527-.002-3.081.005-4.33-.01-4.436l3.421-2.049a.382.382 0 00-.049-.678l-11.698-4.91V5.067h17.935v21.868zm-18.316-9.143c-2.113 0-6.182.273-7.949 1.427.011-3.53-.122-3.3.312-3.6 1.098-.809 4.238-1.373 7.637-1.373 1.482 0 7.954.408 7.954 1.778v3.195c-1.784-1.165-5.832-1.428-7.954-1.428zm.382-16.061c0-.604.491-1.095 1.095-1.095h15.746c.604 0 1.093.498 1.093 1.095v2.574H13.332V1.731zm-.382 7.184l11.09 4.655-2.748 1.644c-1.461-1.449-6.294-1.73-8.342-1.73-2.051 0-6.884.282-8.342 1.73L1.86 13.569l11.091-4.655zM5.002 20.321c0-.617 2.73-1.767 7.949-1.767 5.222 0 7.954 1.151 7.954 1.767s-2.732 1.768-7.954 1.768c-5.219 0-7.949-1.151-7.949-1.768z"/><path fill="var(--color1, #ff6b09)" d="M22.301 28.271a1.261 1.261 0 000 2.52 1.261 1.261 0 000-2.52zm0 1.759a.499.499 0 11.002-.998.499.499 0 01-.002.998zM23.754 2.09h-2.906v.762h2.906V2.09z"/></symbol><symbol id="icon-how-program" viewBox="0 0 31 32"><path fill="var(--color1, #ff6b09)" d="M30.151 4.961l-.001-.002a.32.32 0 00-.06-.09L25.284.063a.258.258 0 00-.041-.033l-.009-.006c-.012-.007-.024-.014-.036-.019L25.187 0a.277.277 0 00-.099-.02H3.911a.284.284 0 00-.284.284v29.311c0 .019.002.037.006.056l.007.023.009.03.014.026.013.023c.01.014.021.028.033.04l.003.003 2.165 2.164c.111.111.29.111.402 0l1.965-1.963 1.964 1.963c.055.056.128.083.201.083s.145-.027.201-.083l1.964-1.963 1.964 1.963a.284.284 0 00.402 0l1.964-1.963 1.963 1.963a.283.283 0 00.401 0l1.965-1.963 1.963 1.963c.055.056.128.083.201.083s.145-.027.201-.083l1.963-1.963 1.965 1.963a.283.283 0 00.401 0l2.165-2.164.011-.014.024-.029c.007-.009.011-.02.016-.03.003-.007.007-.012.009-.019.006-.013.009-.026.012-.039l.004-.013a.286.286 0 00.006-.058V5.071a.296.296 0 00-.023-.109zM25.367.949l3.836 3.835h-3.836V.949zm4.237 28.507l-1.88 1.88-1.965-1.963a.283.283 0 00-.401 0l-1.963 1.963-1.963-1.963a.284.284 0 00-.402 0l-1.965 1.963-1.963-1.962v-.001a.284.284 0 00-.402 0l-1.963 1.963-1.964-1.963a.284.284 0 00-.402 0l-1.963 1.963-1.964-1.963a.284.284 0 00-.402 0l-1.965 1.963-1.88-1.88V.547H24.8v4.522c0 .157.127.284.284.284h4.521v24.103z"/><path fill="var(--color1, #ff6b09)" d="M6.314 3.234h9.303a.284.284 0 100-.568H6.314a.284.284 0 100 .568zM6.314 4.991h14.919a.284.284 0 100-.568H6.314a.284.284 0 100 .568zM6.03 6.568v9.199c0 .157.127.284.284.284h21.172a.284.284 0 00.284-.284V6.568a.284.284 0 00-.284-.284H6.314a.284.284 0 00-.284.284zm6.278.284h14.893v2.445H12.308V6.852zm0 3.013h14.893v2.444H12.308V9.865zm0 3.012h14.893v2.605H12.308v-2.605zm-5.71-6.025h5.142v2.445H6.598V6.852zm0 3.013h5.142v2.444H6.598V9.865zm0 3.012h5.142v2.605H6.598v-2.605zM27.486 17.329H6.314a.284.284 0 00-.284.284v9.198a.284.284 0 10.568 0v-2.889h5.142v2.889a.284.284 0 10.568 0v-2.889h14.893v2.889a.284.284 0 10.568 0v-9.198a.282.282 0 00-.283-.284zM11.74 23.354H6.598v-2.443h5.142v2.443zm0-3.012H6.598v-2.444h5.142v2.444zm15.461 3.012H12.308v-2.443h14.893v2.443zm0-3.012H12.308v-2.444h14.893v2.444zM2.281-.021a.284.284 0 00-.284.284v29.311a.284.284 0 10.568 0V.263a.284.284 0 00-.284-.284zM.718-.021a.284.284 0 00-.284.284v29.311a.284.284 0 10.568 0V.263a.284.284 0 00-.284-.284z"/></symbol><symbol id="icon-how-support" viewBox="0 0 33 32"><path fill="var(--color1, #ff6b09)" d="M1.993 12.558v2.831a.5.5 0 00.189.39 11.099 11.099 0 006.837 2.362c.74 0 1.482-.077 2.206-.224a12.01 12.01 0 004.89 1.032c1.707 0 3.351-.349 4.89-1.032 3.091.624 6.384-.046 9.042-2.138a.495.495 0 00.189-.39v-2.831a1.2 1.2 0 00-.575-1.027l-3.867-2.176c.846-1.073 1.476-2.602 1.586-3.913.321-2.256-1.518-4.646-4.165-4.646a4.208 4.208 0 00-2.948 1.227c-.027.027-.058.049-.084.076-.024.025-.043.054-.067.08-.016.017-.029.036-.044.053C19.315.852 17.861 0 16.148 0c-.166 0-.33.011-.492.028-.01-.001-.018-.006-.028-.006-.092 0-.287.024-.391.054-.015.004-.026.015-.041.021a4.485 4.485 0 00-3.013 2.156A4.176 4.176 0 009.004.796c-3.908 0-5.642 4.612-2.557 8.581l-3.903 2.167a1.192 1.192 0 00-.553 1.014zm19.003 4.27c-.084.041-.167.085-.251.123l-.002.001a11.007 11.007 0 01-4.627 1.006 11.026 11.026 0 01-6.674-2.228v-2.87c0-.098.047-.184.102-.221l4.542-2.524c.565.48 1.287.832 2.035.832.721 0 1.499-.357 2.052-.843l4.487 2.52c.083.053.13.139.13.237v2.87c-.571.429-1.173.795-1.794 1.098zm8.158-4.446a.201.201 0 01.092.176v2.587a9.988 9.988 0 01-6.737 1.98c.369-.23.771-.516 1.083-.76a.496.496 0 00.19-.39v-3.114c0-.435-.218-.835-.61-1.087l-2.383-1.339.58-.321c.703.573 1.307.744 1.848.744.662 0 1.36-.325 1.878-.759l4.06 2.284zM23.216 1.788c1.38 0 2.593.902 3.021 2.142A3.703 3.703 0 0124 2.788a.494.494 0 00-.788.084 3.684 3.684 0 01-2.548 1.76v-.003a4.786 4.786 0 00-.162-1.329c.563-.902 1.609-1.513 2.713-1.513zm-2.66 3.856a4.642 4.642 0 003.164-1.762 4.684 4.684 0 002.702 1.056c-.007 1.792-1.471 4.927-3.206 4.927-1.337 0-2.479-1.912-2.905-3.238a8.15 8.15 0 00.245-.983zm.101 3.729l-.886.491-.895-.502c.332-.413.636-.893.896-1.413.25.526.55 1.01.884 1.425zM19.32 6.465c-.478 1.427-1.705 3.49-3.199 3.49-1.742 0-3.226-2.864-3.509-4.696.075-.019 2.43.126 4.05-2.001.822.688 1.932 1.143 3.011 1.188.013.647-.144 1.406-.352 2.018zM16.15.992c2.78 0 3.309 2.392 3.352 2.442a4.123 4.123 0 01-2.563-1.276.497.497 0 00-.789.087 4.073 4.073 0 01-3.58 2.022c.136-1.822 1.596-3.274 3.58-3.274zm-3.689 6.946c.257.515.563 1.006.913 1.438l-.875.487-.907-.51a7.76 7.76 0 00.87-1.415zm-3.455-6.15c1.125 0 2.155.571 2.729 1.514-.029.1-.106.498-.117.548a3.675 3.675 0 01-1.821-1.062.496.496 0 00-.788.086 3.712 3.712 0 01-3.177 1.815c.158-1.627 1.518-2.9 3.174-2.9zm-3.13 3.89a4.711 4.711 0 003.643-1.796 4.624 4.624 0 002.055.961c.029.575.179 1.273.35 1.789-.274.84-.799 1.841-1.451 2.505l-.014.01c-.408.43-.988.719-1.444.719-1.594 0-2.841-2.508-3.14-4.188zm-2.891 6.88c0-.075.033-.139.067-.162l4.116-2.284c.247.206.304.229.353.265.484.322.928.482 1.534.482.645 0 1.232-.273 1.749-.694.029-.023.06-.045.088-.068l.587.33-2.446 1.361a1.269 1.269 0 00-.584 1.071v3.114c0 .152.07.296.19.39.317.249.727.539 1.083.761a10.024 10.024 0 01-6.737-1.98v-2.587z"/><path fill="var(--color1, #ff6b09)" d="M31.259 20.781a2.063 2.063 0 00-2.007-.11l-6.119 2.956a2.11 2.11 0 00-2.107-2.071l-3.509.001c-1.73-1.504-3.941-2.425-5.952-2.473-1.983-.047-3.763-.06-4.593-.064v-1.002H0v11.517h6.972v-1.379c1.912 1.097 6.939 3.845 9.325 3.845.054 0 .107-.001.158-.004 4.196-.235 14.091-7.198 14.743-7.661a2.08 2.08 0 001.034-1.796c0-.719-.364-1.376-.973-1.758zM5.98 28.542H.992v-9.533H5.98v9.533zm24.707-5.058a.296.296 0 00-.044.028c-.102.073-10.281 7.271-14.244 7.494a2.354 2.354 0 01-.121.003c-2.092 0-7.194-2.753-9.307-4.001v-6.997c.827.004 2.597.017 4.569.064 1.837.044 3.876.921 5.456 2.346l.141.128 3.887-.001c.617 0 1.119.502 1.119 1.119s-.502 1.119-1.119 1.119h-7.142v.992h7.142c.684 0 1.288-.333 1.674-.839l6.984-3.373c.343-.167.725-.146 1.049.057s.508.537.508.918c0 .391-.212.753-.553.945zM16.612 12.159h-.992v.92h.992v-.92zM16.612 13.992h-.992v.92h.992v-.92zM16.612 15.826h-.992v.92h.992v-.92z"/></symbol><symbol id="icon-instagram" viewBox="0 0 32 32"><path fill="var(--color2, #000)" d="M31.452 5.724A5.827 5.827 0 0026.276.548a96.718 96.718 0 00-20.553 0A5.827 5.827 0 00.547 5.724a96.718 96.718 0 000 20.553 5.827 5.827 0 005.176 5.176c6.844.73 13.709.73 20.553 0a5.828 5.828 0 005.176-5.176c.73-6.844.73-13.708 0-20.553z"/><path fill="var(--color2, #000)" d="M29.712 6.881a5.17 5.17 0 00-4.593-4.593 85.795 85.795 0 00-18.238 0 5.171 5.171 0 00-4.593 4.593 85.795 85.795 0 000 18.238 5.17 5.17 0 004.593 4.593 85.795 85.795 0 0018.238 0 5.17 5.17 0 004.593-4.593 85.795 85.795 0 000-18.238z"/><path fill="var(--color2, #000)" d="M.48 25.613l.068.664a5.828 5.828 0 005.176 5.176c6.844.73 13.709.73 20.552 0a5.827 5.827 0 005.176-5.176c.024-.221.046-.442.069-.664H.48z"/><path fill="var(--color2, #000)" d="M31.452 26.276c.393-3.678.574-7.361.544-11.044l-7.314-7.314c-.914-1.043-2.249-1.694-3.817-1.751-3.225-.116-6.461-.11-9.687 0-2.679.092-4.553 1.893-5.033 4.54-.085.467-.136.941-.202 1.411v7.759c.037.252.091.502.108.755.107 1.61.769 2.989 1.828 3.922l7.443 7.443a96.755 96.755 0 0010.954-.545 5.828 5.828 0 005.176-5.176z"/><path fill="var(--color2, #000)" d="M31.452 26.277a5.827 5.827 0 01-5.176 5.176 96.738 96.738 0 01-10.953.545l-7.432-7.432c.862.754 1.985 1.213 3.288 1.262 3.225.121 6.461.118 9.686.002 2.917-.105 5.028-2.264 5.119-5.181.097-3.097.097-6.202 0-9.3-.041-1.346-.514-2.53-1.297-3.426l7.31 7.31a96.729 96.729 0 01-.545 11.044z"/><path fill="var(--color2, #000)" d="M19.776 12.535a5.125 5.125 0 10-7.241 7.241l11.859 11.859c.628-.055 1.255-.116 1.883-.182a5.827 5.827 0 005.176-5.176c.067-.627.128-1.255.182-1.883L19.776 12.535zM31.938 19.447l-9.544-9.544a1.22 1.22 0 00-2.189.737c0 .396.19.747.482.969l11.08 11.08c.075-1.081.132-2.162.171-3.243z"/><path fill="var(--color2, #000)" d="M5.943 12.119c.067-.471.117-.944.202-1.411.48-2.647 2.354-4.447 5.033-4.54 3.226-.111 6.461-.117 9.687 0 2.916.105 5.028 2.264 5.119 5.181.097 3.097.097 6.202 0 9.3-.091 2.917-2.202 5.076-5.119 5.181-3.225.116-6.462.119-9.687-.002-2.916-.11-4.933-2.274-5.128-5.195-.017-.253-.071-.503-.108-.755v-7.759zm10.06 11.982c1.476 0 2.954.044 4.428-.01 2.311-.086 3.733-1.465 3.787-3.774.067-2.877.067-5.758 0-8.636-.054-2.309-1.477-3.72-3.787-3.769a208.195 208.195 0 00-8.8 0c-2.293.048-3.719 1.431-3.781 3.714a161.406 161.406 0 000 8.746c.062 2.283 1.488 3.634 3.781 3.719 1.456.054 2.915.01 4.372.01z"/><path fill="var(--color3, #fff)" d="M5.943 12.119c.067-.471.117-.944.202-1.411.48-2.647 2.354-4.447 5.033-4.54 3.226-.111 6.461-.117 9.687 0 2.916.105 5.028 2.264 5.119 5.181.097 3.097.097 6.202 0 9.3-.091 2.917-2.202 5.076-5.119 5.181-3.225.116-6.462.119-9.687-.002-2.916-.11-4.933-2.274-5.128-5.195-.017-.253-.071-.503-.108-.755v-7.759zm10.06 11.982c1.476 0 2.954.044 4.428-.01 2.311-.086 3.733-1.465 3.787-3.774.067-2.877.067-5.758 0-8.636-.054-2.309-1.477-3.72-3.787-3.769a208.195 208.195 0 00-8.8 0c-2.293.048-3.719 1.431-3.781 3.714a161.406 161.406 0 000 8.746c.062 2.283 1.488 3.634 3.781 3.719 1.456.054 2.915.01 4.372.01z"/><path fill="var(--color3, #fff)" d="M16 10.875a5.125 5.125 0 100 10.25 5.125 5.125 0 000-10.25zm0 8.486a3.361 3.361 0 110-6.723 3.361 3.361 0 010 6.723zM22.644 10.641a1.22 1.22 0 11-2.439 0 1.22 1.22 0 012.439 0z"/></symbol><symbol id="icon-logo-mobile-black" viewBox="0 0 88 32"><path fill="var(--color4, #111518)" d="M12.345 4.848v12.975h-3.67v-5.06H3.67v5.06H0V4.848h3.67v4.875h5.005V4.848h3.67zM25.777 12.818c0 .025-.019.315-.056.871h-7.303c.148.519.433.921.853 1.205.433.272.97.408 1.613.408.482 0 .896-.068 1.242-.204a3.646 3.646 0 001.075-.667l1.854 1.928c-.976 1.087-2.403 1.631-4.282 1.631-1.174 0-2.206-.222-3.096-.667s-1.582-1.063-2.076-1.854c-.482-.791-.723-1.687-.723-2.688 0-.989.235-1.872.704-2.651.482-.791 1.143-1.409 1.983-1.854s1.786-.667 2.836-.667c1.001 0 1.909.21 2.725.63a4.586 4.586 0 011.928 1.798c.482.778.723 1.705.723 2.78zm-5.357-2.706c-.544 0-1.001.154-1.372.463-.358.309-.587.729-.686 1.26h4.115c-.099-.531-.334-.951-.704-1.26-.358-.309-.809-.463-1.353-.463zM28.142 4.069h3.522v13.753h-3.522V4.069zM34.694 4.069h3.522v13.753h-3.522V4.069zM3.328 29.8H1.474l-.354.855H.173l1.779-3.992h.913l1.785 3.992h-.97l-.354-.855zm-.291-.702l-.633-1.528-.633 1.528h1.266zM10.358 29.902v1.58h-.855v-.827H6.686v.827H5.83l.006-1.58h.16c.24-.008.409-.183.508-.525s.16-.831.183-1.466l.046-1.249h3.068v3.239h.559zm-2.857-1.905a8.441 8.441 0 01-.12 1.198c-.061.319-.154.555-.279.707h1.785v-2.487H7.518l-.017.582zM13.895 30.724c-.407 0-.776-.087-1.106-.262a2.041 2.041 0 01-.776-.736c-.186-.316-.28-.671-.28-1.066s.093-.749.28-1.061c.19-.316.449-.561.776-.736a2.3 2.3 0 011.112-.268c.346 0 .658.061.935.183.281.122.517.297.707.525l-.593.548a1.274 1.274 0 00-1.004-.468 1.32 1.32 0 00-.662.165 1.15 1.15 0 00-.456.451c-.106.194-.16.414-.16.662s.053.468.16.662c.11.194.262.346.456.456.194.106.414.16.662.16.399 0 .734-.158 1.004-.473l.593.548c-.19.232-.426.409-.707.53s-.595.183-.941.183zM18.717 29.047h-.639v1.608h-.918v-3.992h.918v1.614h.662l1.049-1.614h.975l-1.306 1.928 1.346 2.065h-1.049l-1.038-1.608zM22.264 26.663h.918v2.601l1.905-2.601h.867v3.992h-.913V28.06l-1.905 2.595h-.873v-3.992zM27.975 26.663h.918v2.601l1.905-2.601h.867v3.992h-.913V28.06l-1.905 2.595h-.873v-3.992zm1.842-.257c-.73 0-1.099-.291-1.106-.873h.633c.008.278.165.416.473.416.152 0 .268-.034.348-.103.08-.072.122-.177.126-.314h.633c-.004.285-.097.502-.279.65s-.458.222-.827.222zM39.031 29.8h-1.854l-.354.855h-.947l1.779-3.992h.912l1.785 3.992h-.969l-.354-.855zm-.291-.702l-.633-1.528-.633 1.528h1.266zM45.571 26.663v3.992h-.924v-1.637h-1.814v1.637h-.924v-3.992h.924v1.574h1.814v-1.574h.924zM50.41 27.416h-1.899l.006 3.239h-.918v-3.992h2.817l-.006.753zM55.069 26.663v3.992h-.913v-3.239h-1.369l-.028.833a8.581 8.581 0 01-.137 1.38c-.072.35-.194.62-.365.81-.167.186-.403.279-.707.279-.125 0-.278-.021-.456-.063l.057-.781a.567.567 0 00.165.023c.221 0 .374-.129.462-.388.087-.262.143-.671.165-1.226l.057-1.62h3.068zM57.092 26.663h.918v2.601l1.905-2.601h.867v3.992h-.913V28.06l-1.905 2.595h-.873v-3.992zM62.803 26.663h.918v2.601l1.905-2.601h.867v3.992h-.913V28.06l-1.905 2.595h-.873v-3.992zm1.842-.257c-.73 0-1.099-.291-1.107-.873h.633c.007.278.165.416.473.416.152 0 .268-.034.348-.103.08-.072.122-.177.125-.314h.633c-.004.285-.097.502-.279.65s-.458.222-.827.222zM70.401 30.724c-.407 0-.776-.087-1.106-.262a2.034 2.034 0 01-.776-.736c-.186-.316-.279-.671-.279-1.066s.093-.749.279-1.061c.19-.316.449-.561.776-.736a2.297 2.297 0 011.112-.268c.346 0 .658.061.935.183.281.122.517.297.707.525l-.593.548a1.276 1.276 0 00-1.004-.468 1.32 1.32 0 00-.662.165 1.15 1.15 0 00-.456.451c-.106.194-.16.414-.16.662s.053.468.16.662c.11.194.262.346.456.456.194.106.414.16.662.16.399 0 .734-.158 1.004-.473l.593.548c-.19.232-.426.409-.707.53s-.595.183-.941.183zM75.224 29.047h-.639v1.608h-.918v-3.992h.918v1.614h.662l1.049-1.614h.975l-1.306 1.928 1.346 2.065h-1.049l-1.038-1.608zM78.771 26.663h.918v2.601l1.905-2.601h.867v3.992h-.913V28.06l-1.905 2.595h-.873v-3.992zM84.481 26.663h.918v2.601l1.905-2.601h.867v3.992h-.913V28.06l-1.905 2.595h-.873v-3.992zm1.843-.257c-.73 0-1.099-.291-1.106-.873h.633c.008.278.165.416.473.416.152 0 .268-.034.348-.103.08-.072.122-.177.125-.314h.633c-.004.285-.097.502-.279.65s-.458.222-.827.222zM73.153 14.987v2.836H62.736V4.848h10.176v2.836h-6.543v2.187h5.765v2.743h-5.765v2.373h6.784zM88.276 4.848v12.975h-3.021l-5.728-6.914v6.914h-3.596V4.848h3.021l5.728 6.914V4.848h3.596z"/><path fill="var(--color1, #ff6b09)" d="M57.546 11.09c-.189-.424-.451-.842-.833-1.325-.964-1.212-1.258-3.915-1.261-3.94a.325.325 0 00-.225-.275.331.331 0 00-.346.094c-1.15 1.286-.667 3.273-.405 4.067.072.217.15.473.206.732.425 2.097-.395 3.046-.588 3.237-.186.052-.314.026-.431-.101-.405-.444-.539-1.899-.35-3.795a3.906 3.906 0 00-.026-1.056c-.4-2.33-1.865-3.825-2.238-4.349C50.023 2.862 49.918.338 49.915.315a.326.326 0 00-.51-.256c-1.712 1.163-1.565 3.966-1.327 5.532.056.363.163.732.35 1.199.663 1.669-.131 3.824-.137 3.843s-.013.036-.016.055c-.101.531-.271.849-.461.849a.205.205 0 01-.062-.01c-.232-.049-.353-.295-.356-.509-.013-2.764-2.787-3.694-2.817-3.704a.325.325 0 00-.392.453c.033.068.137.366.065 1.419a12.078 12.078 0 01-.513 2.78 13.567 13.567 0 00-.549 4.287c.507 5.519 8.444 6.486 13.155 3.377.516-.34.938-.729 1.248-1.157 1.738-2.398.716-5.655-.046-7.385zm-12.074 5.272a.323.323 0 01-.307.34h-.02a.326.326 0 01-.327-.305c-.029-.473-.023-.969.013-1.507a.33.33 0 01.35-.301c.18.013.317.168.304.347-.036.512-.042.979-.013 1.426zm.16-2.871a.324.324 0 01-.323.285c-.013 0-.026 0-.042-.003a.327.327 0 01-.284-.36l.157-1.251a.33.33 0 01.366-.282c.18.023.307.185.284.363l-.157 1.248zM55.335 4.433a.325.325 0 01-.273-.369c.02-.132.138-.806.459-1.145.123-.131.33-.138.462-.015s.138.327.015.458c-.136.144-.251.554-.29.8a.327.327 0 01-.373.271zM43.423 6.048c-.063-.241-.218-.638-.367-.768-.136-.118-.149-.323-.03-.457s.325-.149.461-.03c.352.306.536.966.569 1.094a.324.324 0 01-.235.394.328.328 0 01-.398-.233z"/></symbol><symbol id="icon-logo-tablet-desktop-mix" viewBox="0 0 91 32"><path fill="var(--color4, #111518)" d="M13.608 4.836v12.942H9.947v-5.047H4.955v5.047H1.294V4.836h3.661v4.863h4.992V4.836h3.661zm13.398 7.95c0 .025-.018.314-.055.869h-7.285c.148.518.431.918.851 1.202.431.271.968.407 1.609.407.481 0 .894-.068 1.239-.203a3.63 3.63 0 001.072-.666l1.849 1.923c-.974 1.085-2.397 1.627-4.271 1.627-1.171 0-2.2-.222-3.088-.666s-1.578-1.06-2.071-1.849c-.481-.789-.721-1.683-.721-2.681 0-.986.234-1.867.703-2.644.481-.789 1.14-1.405 1.978-1.849s1.781-.666 2.829-.666c.998 0 1.904.21 2.718.629a4.58 4.58 0 011.923 1.793c.481.777.721 1.701.721 2.773zm-5.343-2.7c-.542 0-.998.154-1.368.462-.357.308-.586.727-.684 1.257h4.105c-.099-.53-.333-.949-.703-1.257-.357-.308-.807-.462-1.35-.462zm7.702-6.027h3.513v13.719h-3.513V4.059zm6.536 0h3.513v13.719h-3.513V4.059z"/><path fill="var(--color1, #ff6b09)" d="M4.614 29.724H2.765l-.353.853h-.944l1.775-3.982h.91l1.781 3.982h-.967l-.353-.853zm-.29-.699L3.693 27.5l-.631 1.525h1.263zm7.302.802v1.576h-.853v-.825h-2.81v.825H7.11l.006-1.576h.159c.239-.008.408-.182.506-.523s.159-.829.182-1.462l.045-1.246h3.061v3.231h.557zm-2.85-1.9a8.56 8.56 0 01-.119 1.195c-.061.319-.154.554-.279.705h1.781v-2.48H8.794l-.017.58zm6.378 2.719c-.406 0-.774-.087-1.104-.262a2.03 2.03 0 01-.774-.734c-.186-.315-.279-.669-.279-1.064s.093-.747.279-1.058a1.98 1.98 0 01.774-.734 2.3 2.3 0 011.109-.267c.345 0 .656.061.933.182.281.121.516.296.705.523l-.592.546a1.271 1.271 0 00-1.001-.466c-.246 0-.466.055-.66.165a1.155 1.155 0 00-.455.449c-.106.193-.159.413-.159.66s.053.466.159.66c.11.193.262.345.455.455.193.106.413.159.66.159.398 0 .732-.157 1.001-.472l.592.546c-.19.231-.425.408-.705.529s-.594.182-.939.182zm4.81-1.672h-.637v1.604h-.916v-3.982h.916v1.61h.66l1.047-1.61h.973l-1.303 1.923 1.343 2.059H21l-1.035-1.604zm3.538-2.378h.916v2.594l1.9-2.594h.865v3.982h-.91V27.99l-1.9 2.588h-.87v-3.982zm5.696 0h.916v2.594l1.9-2.594h.865v3.982h-.91V27.99l-1.9 2.588h-.87v-3.982zm1.838-.256c-.728 0-1.096-.29-1.104-.87h.631c.008.277.165.415.472.415.152 0 .267-.034.347-.102.08-.072.121-.176.125-.313h.631c-.004.284-.097.501-.279.649s-.457.222-.825.222z"/><path fill="var(--color4, #111518)" d="M40.226 29.724h-1.849l-.353.853h-.944l1.775-3.982h.91l1.781 3.982h-.967l-.353-.853zm-.29-.699l-.631-1.525-.631 1.525h1.263zm6.814-2.429v3.982h-.922v-1.633h-1.809v1.633h-.922v-3.982h.922v1.57h1.809v-1.57h.922zm4.827.75h-1.894l.006 3.231h-.916v-3.982h2.81l-.006.751zm4.647-.75v3.982h-.91v-3.231h-1.365l-.028.831a8.564 8.564 0 01-.137 1.377c-.072.349-.193.618-.364.808-.167.186-.402.279-.705.279-.125 0-.277-.021-.455-.063l.057-.779a.562.562 0 00.165.023c.22 0 .374-.129.461-.387.087-.262.142-.669.165-1.223l.057-1.616h3.061zm2.018 0h.916v2.594l1.9-2.594h.865v3.982h-.91V27.99l-1.9 2.588h-.87v-3.982zm5.696 0h.916v2.594l1.9-2.594h.865v3.982h-.91V27.99l-1.9 2.588h-.87v-3.982zm1.838-.256c-.728 0-1.096-.29-1.104-.87h.631c.008.277.165.415.472.415.152 0 .267-.034.347-.102.08-.072.121-.176.125-.313h.631c-.004.284-.097.501-.279.649s-.457.222-.825.222zm5.742 4.306c-.406 0-.774-.087-1.104-.262a2.03 2.03 0 01-.774-.734c-.186-.315-.279-.669-.279-1.064s.093-.747.279-1.058a1.98 1.98 0 01.774-.734 2.3 2.3 0 011.109-.267c.345 0 .656.061.933.182.28.121.516.296.705.523l-.592.546a1.271 1.271 0 00-1.001-.466 1.31 1.31 0 00-.66.165 1.155 1.155 0 00-.455.449c-.106.193-.159.413-.159.66s.053.466.159.66c.11.193.262.345.455.455.193.106.413.159.66.159.398 0 .732-.157 1.001-.472l.592.546c-.19.231-.425.408-.705.529s-.594.182-.939.182zm4.811-1.672h-.637v1.604h-.916v-3.982h.916v1.61h.66l1.047-1.61h.973l-1.303 1.923 1.343 2.059h-1.047l-1.035-1.604zm3.537-2.378h.916v2.594l1.9-2.594h.865v3.982h-.91V27.99l-1.9 2.588h-.87v-3.982zm5.696 0h.916v2.594l1.9-2.594h.865v3.982h-.91V27.99l-1.9 2.588h-.87v-3.982zm1.838-.256c-.728 0-1.096-.29-1.104-.87h.631c.008.277.165.415.472.415.151 0 .267-.034.347-.102.08-.072.122-.176.125-.313h.631c-.004.284-.097.501-.279.649s-.457.222-.825.222zM74.263 14.949v2.829H63.872V4.836h10.15v2.829h-6.527v2.182h5.75v2.736h-5.75v2.367h6.767zM89.348 4.836v12.942h-3.014l-5.713-6.896v6.896h-3.587V4.836h3.014l5.713 6.896V4.836h3.587z"/><path fill="var(--color1, #ff6b09)" d="M58.695 11.062c-.189-.423-.45-.84-.831-1.322-.962-1.209-1.255-3.905-1.258-3.931a.326.326 0 00-.225-.275.33.33 0 00-.345.094c-1.147 1.283-.665 3.265-.404 4.057.072.217.15.472.205.731.424 2.091-.394 3.038-.587 3.229-.186.052-.313.026-.43-.1-.404-.443-.538-1.894-.349-3.785a3.89 3.89 0 00-.026-1.054c-.399-2.324-1.86-3.815-2.233-4.338C51.189 2.855 51.084.337 51.081.315a.324.324 0 00-.508-.255c-1.708 1.16-1.561 3.956-1.323 5.518.055.362.163.731.349 1.196.662 1.665-.13 3.814-.137 3.834s-.013.036-.016.055c-.101.53-.27.847-.46.847a.205.205 0 01-.062-.01c-.231-.048-.352-.294-.355-.507-.013-2.757-2.78-3.685-2.81-3.694a.323.323 0 00-.345.097.32.32 0 00-.046.356c.033.068.137.365.065 1.416a12.072 12.072 0 01-.512 2.773 13.547 13.547 0 00-.548 4.276c.506 5.505 8.423 6.469 13.122 3.368a4.742 4.742 0 001.245-1.154c1.734-2.392.714-5.64-.046-7.366zm-12.043 5.259a.322.322 0 01-.306.339h-.02a.324.324 0 01-.326-.304c-.029-.472-.023-.966.013-1.503a.326.326 0 01.652.045c-.036.511-.042.976-.013 1.422zm.159-2.864a.323.323 0 01-.323.284c-.013 0-.026 0-.042-.003a.327.327 0 01-.284-.359l.156-1.248a.328.328 0 01.649.081l-.156 1.244zM56.489 4.422a.322.322 0 01-.272-.368c.02-.131.138-.804.458-1.142.123-.13.329-.137.461-.015s.138.327.015.457c-.135.143-.251.553-.289.798a.327.327 0 01-.372.27zM44.608 6.032c-.062-.24-.217-.637-.366-.766-.135-.118-.149-.322-.03-.456s.324-.148.46-.03c.351.305.535.963.568 1.092a.322.322 0 01-.235.393.327.327 0 01-.397-.232z"/></symbol><symbol id="icon-phone" viewBox="0 0 32 32"><path fill="var(--color1, #ff6b09)" d="M4.657.002a2.002 2.002 0 00-1.392.651L.67 3.505c.004-.008-.01-.007-.084.097a.624.624 0 00-.09.176C-.56 7.142.148 10.842 1.872 14.362s4.475 6.888 7.633 9.651c3.158 2.764 6.721 4.926 10.119 5.999s6.692 1.058 9.133-.713a.759.759 0 00.131-.127l.01-.012 2.582-2.84a2.02 2.02 0 00-.134-2.84l-6.126-5.571a2.02 2.02 0 00-2.84.133l-2.772 3.048c-2.25-.652-4.173-1.756-6.023-3.439s-3.132-3.494-3.993-5.673l2.771-3.048a2.02 2.02 0 00-.133-2.84L6.104.519A2.008 2.008 0 004.656.001h-.001zm.058 1.251a.75.75 0 01.541.201l6.126 5.571a.736.736 0 01.05 1.061l-3.063 3.366a.632.632 0 00-.124.639c.93 2.537 2.429 4.618 4.493 6.495s4.275 3.174 6.889 3.859c.111.029.228.027.339-.005s.21-.095.287-.18l3.064-3.367a.736.736 0 011.06-.049l6.127 5.571a.735.735 0 01.049 1.06l-2.561 2.815c-2.003 1.438-4.826 1.519-7.986.521-3.173-1.002-6.617-3.076-9.666-5.744s-5.702-5.926-7.332-9.254C1.394 10.519.809 7.189 1.696 4.254l2.502-2.75a.747.747 0 01.52-.251z"/></symbol><symbol id="icon-vk" viewBox="0 0 32 32"><path fill="var(--color5, #436eab)" d="M27.541 18.46c1.061 1.036 2.182 2.011 3.134 3.152.421.507.819 1.03 1.123 1.619.432.836.041 1.757-.709 1.807l-4.662-.002c-1.202.1-2.162-.384-2.968-1.206-.645-.657-1.243-1.357-1.864-2.037-.255-.278-.521-.539-.839-.746-.636-.413-1.189-.287-1.552.377-.37.675-.454 1.423-.491 2.175-.05 1.098-.382 1.386-1.484 1.437-2.357.111-4.593-.245-6.671-1.434-1.832-1.048-3.252-2.528-4.489-4.203-2.407-3.261-4.25-6.845-5.907-10.53-.373-.83-.1-1.276.816-1.291 1.521-.03 3.041-.027 4.564-.002.618.009 1.027.364 1.266.947.823 2.023 1.83 3.948 3.093 5.732.337.475.68.95 1.168 1.284.541.37.952.248 1.207-.355.161-.382.232-.793.268-1.202.121-1.407.136-2.812-.075-4.214-.13-.875-.623-1.442-1.496-1.607-.446-.084-.379-.25-.164-.505.375-.439.727-.712 1.43-.712h5.269c.829.164 1.014.536 1.127 1.371l.004 5.852c-.009.323.161 1.282.743 1.496.466.152.773-.22 1.052-.516 1.261-1.339 2.162-2.921 2.966-4.559.357-.72.664-1.469.961-2.216.22-.555.566-.828 1.191-.816l5.071.005c.15 0 .302.002.448.027.855.146 1.089.513.825 1.348-.416 1.309-1.225 2.4-2.016 3.496-.846 1.17-1.75 2.3-2.589 3.477-.77 1.075-.709 1.617.248 2.55z"/></symbol><symbol id="icon-wave-curve" viewBox="0 0 15 32"><path fill="var(--color3, #fff)" d="M17.122 27.423c-7.989 3.869-12.49.288-15.058.559-.737.078-1.403.279-2.016.518-1.198.468-2.194 1.083-3.128 1.214V-.024h36.956v21.068c-1.042-.246-5.122 3.855-7.442 4.68-3.414.559-1.324-2.17-9.313 1.699z"/></symbol></defs></svg>