<svg width="66" height="48" fill="none" xmlns="http://www.w3.org/2000/svg"><path d="M29.4 6.912H8.94v1.532H29.4V6.912zM29.4 12.624H12.004v1.531H29.4v-1.531zM29.4 18.336H8.94v1.532H29.4v-1.532zM29.4 24.048H12.004v1.532H29.4v-1.532zM29.4 29.76H8.94v1.531H29.4V29.76zM29.4 35.472H12.004v1.532H29.4v-1.532zM57.485 6.912h-20.46v1.532h20.46V6.912zM54.421 12.624H37.025v1.531h17.396v-1.531zM57.485 18.336h-20.46v1.532h20.46v-1.532zM54.421 24.048H37.025v1.532h17.396v-1.532zM57.485 29.76h-20.46v1.531h20.46V29.76zM54.421 35.472H37.025v1.532h17.396v-1.532z" fill="#FF6B09"/><path d="M64.872 5.168h-2.808V.95a.766.766 0 00-.766-.766H38.4A5.924 5.924 0 0033.213 3.2 5.925 5.925 0 0028.024.184H5.128a.766.766 0 00-.766.766v4.218H1.553a.766.766 0 00-.766.766V47.05c0 .423.343.766.766.766h63.32a.766.766 0 00.765-.766V5.934a.766.766 0 00-.766-.766zM38.401 1.716h22.13V42.74H36.768c-1.054 0-2.107.444-2.788 1.02V6.128A4.398 4.398 0 0138.4 1.716zm-32.508 0h22.131a4.385 4.385 0 014.413 4.243c.001.033.004.136.01.169V43.758c-.68-.574-1.722-1.017-2.778-1.017H5.893V1.716zM2.32 6.7h2.043v36.807c0 .423.343.766.766.766h24.54c1.168 0 2.297.766 2.658 2.011H2.319V6.7zm61.787 39.584H34.1a2.768 2.768 0 012.667-2.011h24.53a.766.766 0 00.767-.766V6.7h2.042v39.584z" fill="#FF6B09"/></svg>