<svg width="48" height="47" fill="none" xmlns="http://www.w3.org/2000/svg"><path d="M44.32-.188H21.193a2.733 2.733 0 00-2.73 2.73v9.574L1.28 19.326a.559.559 0 00-.071.997l2.19 1.311V35.61a2.525 2.525 0 00-1.96 2.458v1.347c0 .31.25.56.56.56h3.923a.56.56 0 00.56-.56v-1.347c0-1.198-.842-2.2-1.963-2.457V22.304l1.732 1.037c-.053.4-.006-.696-.024 6.506 0 2.368 6.064 3.636 12.234 3.709v10.906c0 .563.173 1.087.468 1.522a2.727 2.727 0 002.261 1.204h23.127a2.73 2.73 0 002.728-2.728c0 .075-.003-2.31 0-41.917 0-1.486-1.228-2.731-2.726-2.731zM5.363 38.067v.788H2.56v-.788c0-.775.627-1.406 1.398-1.406.776 0 1.406.631 1.406 1.406zm38.957 7.999H21.193c-.555 0-1.046-.28-1.335-.707a1.599 1.599 0 01-.276-.899v-3.78h26.342v3.782c0 .876-.73 1.604-1.604 1.604zm1.604-6.505H19.58v-6.002c3.013-.034 12.243-.698 12.243-3.712-.004-4.524.008-6.36-.015-6.515l5.025-3.01a.56.56 0 00-.072-.995l-17.18-7.212V7.442h26.342v32.119zM19.022 26.132c-3.104 0-9.08.401-11.675 2.096.016-5.185-.18-4.847.458-5.287 1.613-1.187 6.225-2.016 11.217-2.016 2.177 0 11.683.598 11.683 2.61v4.694c-2.62-1.711-8.566-2.097-11.683-2.097zm.56-23.59a1.61 1.61 0 011.61-1.608h23.126c.888 0 1.606.732 1.606 1.608v3.781H19.583v-3.78zm-.56 10.552l16.288 6.837-4.036 2.415c-2.145-2.128-9.243-2.54-12.252-2.54-3.013 0-10.111.413-12.252 2.54l-4.038-2.415 16.29-6.837zM7.347 29.847c0-.905 4.01-2.596 11.675-2.596 7.67 0 11.683 1.69 11.683 2.596 0 .906-4.013 2.597-11.683 2.597-7.665 0-11.675-1.69-11.675-2.597z" fill="#FF6B09"/><path d="M32.755 41.523c-1.02 0-1.85.83-1.85 1.851 0 1.02.83 1.851 1.85 1.851s1.85-.83 1.85-1.851c0-1.02-.83-1.85-1.85-1.85zm0 2.583a.733.733 0 010-1.464.732.732 0 010 1.464zM34.89 3.069h-4.27v1.119h4.27V3.069z" fill="#FF6B09"/></svg>